*
%FSLAX26Y26*%
%MOIN*%
%ADD10C,0.005500*%
%IPPOS*%
%LN2-3.gbx*%
%LPD*%
G75*
G54D10*
X00707402Y00344449D03*
X00722874Y00406496D03*
X00934252Y00427598D03*
X00957913Y00453504D03*
X00942638Y00366181D03*
X01537638Y00520748D03*
X01590315D03*
X01569921Y00496732D03*
X01611929Y00828976D03*
X01365433Y00873937D03*
X01590315Y01121260D03*
X01569921Y01272480D03*
X00936929Y01302913D03*
X00707717Y01280945D03*
X00697047Y01194016D03*
X00156496Y00132874D03*
Y00274606D03*
Y00546260D03*
Y00687992D03*
Y00959646D03*
Y01101378D03*
Y01373031D03*
X00250984D03*
Y01101378D03*
Y00959646D03*
Y00687992D03*
Y00546260D03*
Y00274606D03*
Y00132874D03*
X00569882D03*
X00664370D03*
Y00274606D03*
X00569882D03*
Y00546260D03*
X00664370D03*
Y00687992D03*
X00569882D03*
X00705394Y00776181D03*
X00823622Y00773780D03*
X00933819Y00749016D03*
Y00799016D03*
Y00849016D03*
X00878504Y00924370D03*
X00823622Y00911339D03*
X00664370Y00959646D03*
X00569882D03*
Y01101378D03*
X00664370D03*
Y01373031D03*
X00569882D03*
X00983268D03*
X01077756D03*
Y01101378D03*
X00983268D03*
Y00959646D03*
X01077756D03*
Y00687992D03*
X00983268D03*
X00889843Y00680394D03*
X00866146Y00630394D03*
X00983268Y00546260D03*
X01077756D03*
Y00274606D03*
X00983268D03*
Y00132874D03*
X01077756D03*
X01396654D03*
X01491142D03*
Y00274606D03*
Y00294685D03*
X01396654Y00274606D03*
Y00546260D03*
X01491142D03*
Y00687992D03*
X01396654D03*
Y00959646D03*
X01491142D03*
Y01101378D03*
Y01121457D03*
X01396654Y01101378D03*
Y01373031D03*
X01491142D03*
Y01514764D03*
X01492402Y01536102D03*
X01396654Y01514764D03*
X01077756D03*
X00983268D03*
X00664370D03*
X00569882D03*
X00250984D03*
X00156496D03*
X00203740Y00297244D03*
Y00523622D03*
Y01124016D03*
Y01350394D03*
X00617126D03*
Y01124016D03*
X01030512D03*
Y01350394D03*
X01443898D03*
Y01124016D03*
Y00523622D03*
Y00297244D03*
X01030512D03*
Y00523622D03*
X00823819Y00547677D03*
X00617126Y00523622D03*
Y00297244D03*
X00092520Y00144488D03*
X00096260Y00157874D03*
X00109252Y00164370D03*
X00125004D03*
Y00148622D03*
Y00132874D03*
X00109248Y00148547D03*
X00109252Y00180118D03*
X00125004D03*
Y00195866D03*
X00109252D03*
Y00211614D03*
X00109248Y00227287D03*
X00125004Y00227362D03*
Y00211614D03*
Y00243110D03*
X00109252D03*
Y00258858D03*
X00125004D03*
Y00274606D03*
X00092520Y00262992D03*
X00096260Y00249606D03*
X00092520Y00557874D03*
X00096260Y00571260D03*
X00109252Y00577756D03*
X00125000D03*
Y00562008D03*
Y00546260D03*
X00109244Y00561937D03*
X00109252Y00593504D03*
X00125000D03*
Y00609252D03*
X00109252D03*
Y00625000D03*
X00109244Y00640677D03*
X00125000Y00640748D03*
Y00625000D03*
Y00656496D03*
X00109252D03*
Y00672244D03*
X00125000D03*
Y00687992D03*
X00092520Y00676378D03*
X00096260Y00662992D03*
X00092520Y00971260D03*
X00096260Y00984646D03*
X00109252Y00991142D03*
X00125004D03*
Y00975394D03*
Y00959646D03*
X00109248Y00975319D03*
X00109252Y01006890D03*
X00125004D03*
Y01022638D03*
X00109252D03*
Y01038386D03*
X00109248Y01054059D03*
X00125004Y01054134D03*
Y01038386D03*
Y01069882D03*
X00109252D03*
Y01085630D03*
X00125004D03*
Y01101378D03*
X00092520Y01089764D03*
X00096260Y01076378D03*
X00092520Y01384646D03*
X00096260Y01398031D03*
X00109252Y01404528D03*
X00125000D03*
Y01420276D03*
Y01436024D03*
X00109252D03*
Y01420276D03*
Y01388780D03*
X00125000D03*
Y01373031D03*
X00282480D03*
Y01388780D03*
Y01404528D03*
X00298228D03*
Y01420276D03*
X00282480D03*
Y01436024D03*
X00298228D03*
X00298220Y01388705D03*
X00314961Y01384646D03*
X00311220Y01398031D03*
X00509646D03*
X00505906Y01384646D03*
X00522630Y01388705D03*
X00538386Y01388780D03*
Y01373031D03*
Y01404528D03*
X00522638D03*
Y01420276D03*
X00538386D03*
Y01436024D03*
X00522638D03*
X00695866D03*
X00711614D03*
Y01420276D03*
X00695866D03*
Y01404528D03*
X00711614D03*
X00711606Y01388705D03*
X00695866Y01388780D03*
Y01373031D03*
X00728346Y01384646D03*
X00724606Y01398031D03*
X00923031D03*
X00919291Y01384646D03*
X00936016Y01388705D03*
X00951772Y01388780D03*
Y01373031D03*
Y01404528D03*
X00936024D03*
Y01420276D03*
X00951772D03*
Y01436024D03*
X00936024D03*
X01109252D03*
X01125000D03*
Y01420276D03*
X01109252D03*
Y01404528D03*
X01125000D03*
X01124992Y01388705D03*
X01109252Y01388780D03*
Y01373031D03*
X01141732Y01384646D03*
X01137992Y01398031D03*
X01336417D03*
X01332677Y01384646D03*
X01349402Y01388705D03*
X01365157Y01388780D03*
Y01373031D03*
Y01404528D03*
X01349409D03*
Y01420276D03*
X01365157D03*
Y01436024D03*
X01349409D03*
X01522638D03*
X01538386D03*
Y01420276D03*
X01522638D03*
Y01404528D03*
X01538386D03*
X01538378Y01388705D03*
X01522638Y01388780D03*
Y01373031D03*
X01555118Y01384646D03*
X01551378Y01398031D03*
X01555118Y01089764D03*
X01551378Y01076378D03*
X01538386Y01069882D03*
Y01085630D03*
X01522638D03*
Y01069882D03*
Y01054134D03*
Y01038386D03*
X01538386D03*
X01538378Y01054059D03*
X01538386Y01022638D03*
Y01006890D03*
X01522638D03*
Y01022638D03*
Y00991142D03*
X01538386D03*
X01538378Y00975319D03*
X01522638Y00975394D03*
Y00959646D03*
X01555118Y00971260D03*
X01551378Y00984646D03*
X01522638Y01101378D03*
X01365157D03*
Y01085630D03*
Y01069882D03*
Y01054134D03*
Y01038386D03*
Y01022638D03*
Y01006890D03*
Y00991142D03*
Y00975394D03*
Y00959646D03*
X01349402Y00975319D03*
X01349409Y00991142D03*
Y01006890D03*
Y01022638D03*
Y01038386D03*
X01349402Y01054059D03*
X01349409Y01069882D03*
Y01085630D03*
X01332677Y01089764D03*
X01336417Y01076378D03*
Y00984646D03*
X01332677Y00971260D03*
X01141736D03*
X01137992Y00984646D03*
X01125000Y00991142D03*
X01109252D03*
Y01006890D03*
Y01022638D03*
Y01038386D03*
Y01054134D03*
Y01069882D03*
Y01085630D03*
X01125000D03*
Y01069882D03*
X01124996Y01054059D03*
X01125000Y01038386D03*
Y01022638D03*
Y01006890D03*
X01124996Y00975319D03*
X01109252Y00975394D03*
Y00959646D03*
Y01101378D03*
X01141736Y01089764D03*
X01137992Y01076378D03*
X00951772Y01069882D03*
Y01054134D03*
Y01038386D03*
Y01022638D03*
Y01006890D03*
Y00991142D03*
Y00975394D03*
Y00959646D03*
X00936020Y00975319D03*
X00936024Y00991142D03*
Y01006890D03*
Y01022638D03*
Y01038386D03*
X00936020Y01054059D03*
X00936024Y01069882D03*
Y01085630D03*
X00951772D03*
Y01101378D03*
X00919291Y01089764D03*
X00923031Y01076378D03*
Y00984646D03*
X00919291Y00971260D03*
X00728350D03*
X00724606Y00984646D03*
X00711614Y00991142D03*
Y01006890D03*
Y01022638D03*
Y01038386D03*
X00711610Y01054059D03*
X00695866Y01054134D03*
Y01069882D03*
Y01085630D03*
X00711614D03*
Y01069882D03*
X00724606Y01076378D03*
X00728350Y01089764D03*
X00695866Y01101378D03*
Y01038386D03*
Y01022638D03*
Y01006890D03*
Y00991142D03*
Y00975394D03*
Y00959646D03*
X00711610Y00975319D03*
X00538386Y00975394D03*
Y00959646D03*
X00522634Y00975319D03*
X00522638Y00991142D03*
X00538386D03*
Y01006890D03*
Y01022638D03*
X00522638D03*
Y01038386D03*
X00522634Y01054059D03*
X00538386Y01054134D03*
Y01038386D03*
Y01069882D03*
X00522638D03*
Y01085630D03*
X00538386D03*
Y01101378D03*
X00505906Y01089764D03*
X00509646Y01076378D03*
X00522638Y01006890D03*
X00509646Y00984646D03*
X00505906Y00971260D03*
X00314965D03*
X00311224Y00984646D03*
X00298228Y00991142D03*
Y01006890D03*
Y01022638D03*
Y01038386D03*
X00298224Y01054059D03*
X00282480Y01054134D03*
Y01069882D03*
Y01085630D03*
X00298228D03*
Y01069882D03*
X00311224Y01076378D03*
X00314965Y01089764D03*
X00282480Y01101378D03*
Y01038386D03*
Y01022638D03*
Y01006890D03*
Y00991142D03*
Y00975394D03*
Y00959646D03*
X00298224Y00975319D03*
X00282480Y00687992D03*
Y00672244D03*
X00298228D03*
Y00656496D03*
X00282480D03*
Y00640748D03*
Y00625000D03*
X00298228D03*
X00298220Y00640677D03*
X00298228Y00609252D03*
Y00593504D03*
X00282480D03*
Y00609252D03*
Y00577756D03*
X00298228D03*
X00298220Y00561937D03*
X00282480Y00562008D03*
Y00546260D03*
X00314961Y00557874D03*
X00311220Y00571260D03*
Y00662992D03*
X00314961Y00676378D03*
X00505906D03*
X00509646Y00662992D03*
X00522638Y00656496D03*
X00538386D03*
Y00640748D03*
Y00625000D03*
Y00609252D03*
Y00593504D03*
Y00577756D03*
Y00562008D03*
Y00546260D03*
X00522630Y00561937D03*
X00522638Y00577756D03*
Y00593504D03*
Y00609252D03*
Y00625000D03*
X00522630Y00640677D03*
X00522638Y00672244D03*
X00538386D03*
Y00687992D03*
X00509646Y00571260D03*
X00505906Y00557874D03*
X00695866Y00562008D03*
Y00577756D03*
Y00593504D03*
X00711614D03*
Y00609252D03*
Y00625000D03*
X00711606Y00640677D03*
X00695866Y00640748D03*
Y00656496D03*
Y00672244D03*
X00711614D03*
Y00656496D03*
X00724606Y00662992D03*
X00728346Y00676378D03*
X00695866Y00687992D03*
Y00625000D03*
Y00609252D03*
X00711614Y00577756D03*
X00711606Y00561937D03*
X00728346Y00557874D03*
X00724606Y00571260D03*
X00695866Y00546260D03*
X00919291Y00557874D03*
X00923031Y00571260D03*
X00936024Y00577756D03*
X00951772D03*
Y00562008D03*
Y00546260D03*
X00936016Y00561937D03*
X00936024Y00593504D03*
X00951772D03*
Y00609252D03*
X00936024D03*
Y00625000D03*
X00936016Y00640677D03*
X00951772Y00640748D03*
Y00625000D03*
Y00656496D03*
X00936024D03*
Y00672244D03*
X00951772D03*
Y00687992D03*
X00919291Y00676378D03*
X00924819Y00661493D03*
X01109252Y00656496D03*
Y00672244D03*
X01125000D03*
Y00656496D03*
X01124992Y00640677D03*
X01125000Y00625000D03*
X01109252D03*
Y00640748D03*
Y00609252D03*
X01125000D03*
Y00593504D03*
X01109252D03*
Y00577756D03*
X01125000D03*
X01124992Y00561937D03*
X01109252Y00562008D03*
Y00546260D03*
X01141732Y00557874D03*
X01137992Y00571260D03*
Y00662992D03*
X01141732Y00676378D03*
X01109252Y00687992D03*
X01332677Y00676378D03*
X01336417Y00662992D03*
X01349409Y00656496D03*
X01365157D03*
Y00640748D03*
Y00625000D03*
Y00609252D03*
Y00593504D03*
Y00577756D03*
Y00562008D03*
Y00546260D03*
X01349402Y00561937D03*
X01349409Y00577756D03*
Y00593504D03*
Y00609252D03*
Y00625000D03*
X01349402Y00640677D03*
X01349409Y00672244D03*
X01365157D03*
Y00687992D03*
X01336417Y00571260D03*
X01332677Y00557874D03*
X01522638Y00562008D03*
Y00577756D03*
Y00593504D03*
X01538386D03*
Y00609252D03*
Y00625000D03*
X01538378Y00640677D03*
X01522638Y00640748D03*
Y00656496D03*
Y00672244D03*
X01538386D03*
Y00656496D03*
X01551378Y00662992D03*
X01555118Y00676378D03*
X01522638Y00687992D03*
Y00625000D03*
Y00609252D03*
X01538386Y00577756D03*
X01538378Y00561937D03*
X01555118Y00557874D03*
X01551378Y00571260D03*
X01522638Y00546260D03*
Y00274606D03*
Y00258858D03*
X01538386D03*
Y00243110D03*
X01522638D03*
Y00227362D03*
Y00211614D03*
X01538386D03*
X01538382Y00227287D03*
X01538386Y00195866D03*
Y00180118D03*
X01522638D03*
Y00195866D03*
Y00164370D03*
X01538386D03*
X01538382Y00148547D03*
X01522638Y00148622D03*
Y00132874D03*
X01555122Y00144488D03*
X01551378Y00157874D03*
Y00249606D03*
X01555122Y00262992D03*
X01365157Y00258858D03*
Y00243110D03*
Y00227362D03*
Y00211614D03*
Y00195866D03*
Y00180118D03*
Y00164370D03*
Y00148622D03*
Y00132874D03*
X01349406Y00148547D03*
X01349413Y00164370D03*
X01349409Y00180118D03*
X01349413Y00195866D03*
Y00211614D03*
X01349406Y00227287D03*
X01349413Y00243110D03*
X01349409Y00258858D03*
X01332677Y00262992D03*
X01336417Y00249606D03*
X01365157Y00274606D03*
X01336417Y00157874D03*
X01332677Y00144488D03*
X01141736D03*
X01137992Y00157874D03*
X01125000Y00164370D03*
Y00180118D03*
Y00195866D03*
Y00211614D03*
X01124996Y00227287D03*
X01109252Y00227362D03*
Y00243110D03*
Y00258858D03*
X01125000D03*
Y00243110D03*
X01137992Y00249606D03*
X01141736Y00262992D03*
X01109252Y00274606D03*
Y00211614D03*
Y00195866D03*
Y00180118D03*
Y00164370D03*
Y00148622D03*
Y00132874D03*
X01124996Y00148547D03*
X00951772Y00148622D03*
Y00132874D03*
X00936020Y00148547D03*
X00936024Y00164370D03*
X00951772D03*
Y00180118D03*
Y00195866D03*
X00936024D03*
Y00211614D03*
X00936020Y00227287D03*
X00951772Y00227362D03*
Y00211614D03*
Y00243110D03*
X00936024D03*
Y00258858D03*
X00951772D03*
Y00274606D03*
X00919291Y00262992D03*
X00923031Y00249606D03*
X00936024Y00180118D03*
X00923031Y00157874D03*
X00919291Y00144488D03*
X00728350D03*
X00724606Y00157874D03*
X00711614Y00164370D03*
Y00180118D03*
Y00195866D03*
Y00211614D03*
X00711610Y00227287D03*
X00695866Y00227362D03*
Y00243110D03*
Y00258858D03*
X00711614D03*
Y00243110D03*
X00724606Y00249606D03*
X00728350Y00262992D03*
X00695866Y00274606D03*
Y00211614D03*
Y00195866D03*
Y00180118D03*
Y00164370D03*
Y00148622D03*
Y00132874D03*
X00711610Y00148547D03*
X00538386Y00148622D03*
Y00132874D03*
X00522634Y00148547D03*
X00522638Y00164370D03*
X00538386D03*
Y00180118D03*
Y00195866D03*
X00522638D03*
Y00211614D03*
X00522634Y00227287D03*
X00538386Y00227362D03*
Y00211614D03*
Y00243110D03*
X00522638D03*
Y00258858D03*
X00538386D03*
Y00274606D03*
X00505906Y00262992D03*
X00509646Y00249606D03*
X00522638Y00180118D03*
X00509646Y00157874D03*
X00505906Y00144488D03*
X00314965D03*
X00311224Y00157874D03*
X00298228Y00164370D03*
Y00180118D03*
Y00195866D03*
Y00211614D03*
X00298224Y00227287D03*
X00282480Y00227362D03*
Y00243110D03*
Y00258858D03*
X00298228D03*
Y00243110D03*
X00311224Y00249606D03*
X00314965Y00262992D03*
X00282480Y00274606D03*
Y00211614D03*
Y00195866D03*
Y00180118D03*
Y00164370D03*
Y00148622D03*
Y00132874D03*
X00298224Y00148547D03*
X00298228Y01451772D03*
Y01467520D03*
X00282480D03*
Y01451772D03*
Y01483268D03*
X00298228D03*
X00298236Y01499087D03*
X00282480Y01499016D03*
Y01514764D03*
X00314961Y01503150D03*
X00311220Y01489764D03*
X00509646D03*
X00505906Y01503150D03*
X00522638Y01499016D03*
Y01483268D03*
X00538386D03*
Y01467520D03*
Y01451772D03*
X00522638D03*
X00522630Y01467445D03*
X00538386Y01499016D03*
Y01514764D03*
X00695866D03*
Y01499016D03*
X00711614D03*
Y01483268D03*
X00695866D03*
Y01467520D03*
Y01451772D03*
X00711614D03*
X00711606Y01467445D03*
X00724606Y01489764D03*
X00728346Y01503150D03*
X00919291D03*
X00923031Y01489764D03*
X00936024Y01483268D03*
X00951772D03*
Y01467520D03*
Y01451772D03*
X00936024D03*
X00936016Y01467445D03*
X00936024Y01499016D03*
X00951772D03*
Y01514764D03*
X01109252D03*
Y01499016D03*
X01125000D03*
Y01483268D03*
X01109252D03*
Y01467520D03*
Y01451772D03*
X01125000D03*
X01124992Y01467445D03*
X01137992Y01489764D03*
X01141732Y01503150D03*
X01332677D03*
X01336417Y01489764D03*
X01349409Y01483268D03*
X01365157D03*
Y01467520D03*
Y01451772D03*
X01349409D03*
X01349402Y01467445D03*
X01349409Y01499016D03*
X01365157D03*
Y01514764D03*
X01522638D03*
Y01499016D03*
X01538386D03*
Y01483268D03*
X01522638D03*
Y01467520D03*
Y01451772D03*
X01538386D03*
X01538378Y01467445D03*
X01551378Y01489764D03*
X01555118Y01503150D03*
X00125000Y01499016D03*
Y01514764D03*
Y01483268D03*
X00109252D03*
Y01467520D03*
X00125000D03*
Y01451772D03*
X00109252D03*
Y01499016D03*
X00092520Y01503150D03*
X00096260Y01489764D03*
X00203740Y00274606D03*
Y00546260D03*
Y01101378D03*
Y01373031D03*
X00617126D03*
Y01101378D03*
X01030512D03*
Y01373031D03*
X01443898D03*
Y01101378D03*
Y00546260D03*
Y00274606D03*
X01030512D03*
Y00546260D03*
X00823819Y00517028D03*
X00617126Y00546260D03*
Y00274606D03*
X00203740Y00157480D03*
Y00250000D03*
Y00570866D03*
Y00663386D03*
Y00984252D03*
Y01076772D03*
Y01397638D03*
X00617126D03*
Y01076772D03*
Y00984252D03*
Y00663386D03*
Y00570866D03*
X00793976Y00534055D03*
X00787783Y00518701D03*
X00794331Y00502165D03*
X00787783Y00487205D03*
Y00467520D03*
Y00447835D03*
X00859831Y00447874D03*
X00859839Y00467520D03*
X00859843Y00487165D03*
X00853307Y00502165D03*
X00859839Y00518701D03*
X00853661Y00534055D03*
X00840630Y00543740D03*
X00807008D03*
X01030512Y00570866D03*
Y00663386D03*
Y00984252D03*
Y01076772D03*
X00823819Y01099961D03*
X01030512Y01397638D03*
X01443898D03*
Y01076772D03*
Y00984252D03*
Y00663386D03*
Y00570866D03*
Y00250000D03*
Y00157480D03*
X01030512D03*
Y00250000D03*
X00617126D03*
Y00157480D03*
Y01490157D03*
X01030512D03*
X01443898D03*
X00203740D03*
Y00132874D03*
Y00687992D03*
Y00959646D03*
X00617126D03*
Y00687992D03*
X01030512D03*
Y00959646D03*
X00823819Y01130610D03*
X01443898Y00959646D03*
Y00687992D03*
Y00132874D03*
X01030512D03*
X00617126D03*
Y01514764D03*
X01030512D03*
X01443898D03*
X00203740D03*
X00187992Y00113189D03*
X00203740Y00110433D03*
X00219488Y00113189D03*
X00221457Y00254921D03*
X00186024D03*
Y00294252D03*
X00221457D03*
Y00526614D03*
X00186024D03*
Y00565945D03*
X00221457D03*
X00219488Y00707677D03*
X00203740Y00710433D03*
X00187992Y00707677D03*
Y00939961D03*
X00203740Y00937205D03*
X00219488Y00939961D03*
X00221457Y01081693D03*
X00186024D03*
Y01121024D03*
X00221457D03*
Y01353386D03*
X00186024D03*
Y01392717D03*
X00221457D03*
X00599409D03*
X00634843D03*
Y01353386D03*
X00599409D03*
Y01121024D03*
X00634843D03*
X00634839Y01081693D03*
X00599409D03*
X00601378Y00939961D03*
X00617126Y00937205D03*
X00632874Y00939961D03*
Y00707677D03*
X00617126Y00710433D03*
X00601378Y00707677D03*
X00599409Y00565945D03*
X00634843D03*
Y00526614D03*
X00599409D03*
Y00294252D03*
X00634843D03*
Y00254921D03*
X00599409D03*
X00601378Y00113189D03*
X00617126Y00110433D03*
X00632874Y00113189D03*
X01014764D03*
X01030512Y00110433D03*
X01046260Y00113189D03*
X01048228Y00254921D03*
X01012799D03*
Y00294252D03*
X01048228D03*
Y00526614D03*
X01012795D03*
Y00565945D03*
X01048228D03*
X01046260Y00707677D03*
X01030512Y00710433D03*
X01014764Y00707677D03*
Y00939961D03*
X01030512Y00937205D03*
X01046260Y00939961D03*
X01048228Y01081693D03*
X01012799D03*
Y01121024D03*
X01048228D03*
X00859854Y01128937D03*
X00853661Y01113583D03*
X00840630Y01103898D03*
X00807008D03*
X00793976Y01113583D03*
X00787799Y01128937D03*
X00794331Y01145472D03*
X00787795Y01160472D03*
X00787799Y01180118D03*
X00787807Y01199764D03*
X00859854Y01199803D03*
Y01180118D03*
Y01160433D03*
X00853307Y01145472D03*
X01012795Y01353386D03*
X01048228D03*
Y01392717D03*
X01012795D03*
X01426181D03*
X01461614D03*
X01461610Y01353386D03*
X01426181D03*
Y01121024D03*
X01461614D03*
Y01081693D03*
X01426181D03*
X01428150Y00939961D03*
X01443898Y00937205D03*
X01459646Y00939961D03*
Y00707677D03*
X01443898Y00710433D03*
X01428150Y00707677D03*
X01426181Y00565945D03*
X01461614D03*
Y00526614D03*
X01426181D03*
Y00294252D03*
X01461614D03*
Y00254921D03*
X01426181D03*
X01428150Y00113189D03*
X01443898Y00110433D03*
X01459646Y00113189D03*
Y01534449D03*
X01443898Y01537205D03*
X01428150Y01534449D03*
X01046260D03*
X01030512Y01537205D03*
X01014764Y01534449D03*
X00632874D03*
X00617126Y01537205D03*
X00601378Y01534449D03*
X00219488D03*
X00203740Y01537205D03*
X00187992Y01534449D03*
X00807008Y00490315D03*
X00823819Y00486378D03*
X00840630Y00490315D03*
X00177992Y00125709D03*
Y00140039D03*
X00186024Y00152520D03*
X00221457D03*
X00229488Y00140039D03*
Y00125709D03*
Y00267441D03*
Y00281772D03*
X00177992D03*
Y00267441D03*
Y00539094D03*
Y00553425D03*
X00229488D03*
Y00539094D03*
X00221457Y00668346D03*
X00229488Y00680827D03*
Y00695157D03*
X00177992D03*
Y00680827D03*
X00186024Y00668346D03*
X00177992Y00952480D03*
Y00966811D03*
X00186024Y00979291D03*
X00221457D03*
X00229488Y00966811D03*
Y00952480D03*
Y01094213D03*
Y01108543D03*
X00177992D03*
Y01094213D03*
Y01365866D03*
Y01380197D03*
X00229488D03*
Y01365866D03*
X00591378D03*
Y01380197D03*
X00642874D03*
Y01365866D03*
Y01108543D03*
Y01094213D03*
X00591382D03*
Y01108543D03*
X00599409Y00979291D03*
X00591382Y00966811D03*
Y00952480D03*
X00642874D03*
Y00966811D03*
X00634843Y00979291D03*
X00642874Y00695157D03*
Y00680827D03*
X00634843Y00668346D03*
X00599409D03*
X00591378Y00680827D03*
Y00695157D03*
Y00553425D03*
Y00539094D03*
X00642874D03*
Y00553425D03*
Y00281772D03*
Y00267441D03*
X00591382D03*
Y00281772D03*
X00599409Y00152520D03*
X00591382Y00140039D03*
Y00125709D03*
X00642874D03*
Y00140039D03*
X00634843Y00152520D03*
X01012799D03*
X01004768Y00140039D03*
Y00125709D03*
X01056260D03*
Y00140039D03*
X01048228Y00152520D03*
X01056260Y00267441D03*
Y00281772D03*
X01004768D03*
Y00267441D03*
X01004764Y00539094D03*
Y00553425D03*
X01056260D03*
Y00539094D03*
X01048228Y00668346D03*
X01056260Y00680827D03*
Y00695157D03*
X01004764D03*
Y00680827D03*
X01012795Y00668346D03*
X01004768Y00952480D03*
Y00966811D03*
X01012799Y00979291D03*
X01048228D03*
X01056260Y00966811D03*
Y00952480D03*
Y01094213D03*
Y01108543D03*
X01004768D03*
Y01094213D03*
X00840630Y01157323D03*
X00823819Y01161260D03*
X00807008Y01157323D03*
X01004764Y01365866D03*
Y01380197D03*
X01056260D03*
Y01365866D03*
X01418150D03*
Y01380197D03*
X01469646D03*
Y01365866D03*
Y01108543D03*
Y01094213D03*
X01418150D03*
Y01108543D03*
X01426181Y00979291D03*
X01418154Y00966811D03*
Y00952480D03*
X01469646D03*
Y00966811D03*
X01461614Y00979291D03*
X01469646Y00695157D03*
Y00680827D03*
X01461614Y00668346D03*
X01426181D03*
X01418150Y00680827D03*
Y00695157D03*
Y00553425D03*
Y00539094D03*
X01469646D03*
Y00553425D03*
Y00281772D03*
Y00267441D03*
X01418154D03*
Y00281772D03*
X01426181Y00152520D03*
X01418154Y00140039D03*
Y00125709D03*
X01469646D03*
Y00140039D03*
X01461614Y00152520D03*
Y01495118D03*
X01469646Y01507598D03*
Y01521929D03*
X01418150D03*
Y01507598D03*
X01426181Y01495118D03*
X01048228D03*
X01056260Y01507598D03*
Y01521929D03*
X01004764D03*
Y01507598D03*
X01012795Y01495118D03*
X00634843D03*
X00642874Y01507598D03*
Y01521929D03*
X00591378D03*
Y01507598D03*
X00599409Y01495118D03*
X00221457D03*
X00229488Y01507598D03*
Y01521929D03*
X00177992D03*
Y01507598D03*
X00186024Y01495118D03*
M02*
