*
%FSLAX26Y26*%
%MOIN*%
%ADD10C,0.005500*%
%IPPOS*%
%LN6-7.gbx*%
%LPD*%
G75*
G54D10*
X00203740Y00132874D03*
Y00687992D03*
Y00959646D03*
X00617126D03*
Y00687992D03*
X01030512D03*
Y00959646D03*
X00823819Y01130610D03*
X01443898Y00959646D03*
Y00687992D03*
Y00132874D03*
X01030512D03*
X00617126D03*
Y01514764D03*
X01030512D03*
X01443898D03*
X00203740D03*
X00187992Y00113189D03*
X00203740Y00110433D03*
X00219488Y00113189D03*
X00221457Y00254921D03*
X00186024D03*
Y00294252D03*
X00221457D03*
Y00526614D03*
X00186024D03*
Y00565945D03*
X00221457D03*
X00219488Y00707677D03*
X00203740Y00710433D03*
X00187992Y00707677D03*
Y00939961D03*
X00203740Y00937205D03*
X00219488Y00939961D03*
X00221457Y01081693D03*
X00186024D03*
Y01121024D03*
X00221457D03*
Y01353386D03*
X00186024D03*
Y01392717D03*
X00221457D03*
X00599409D03*
X00634843D03*
Y01353386D03*
X00599409D03*
Y01121024D03*
X00634843D03*
X00634839Y01081693D03*
X00599409D03*
X00601378Y00939961D03*
X00617126Y00937205D03*
X00632874Y00939961D03*
Y00707677D03*
X00617126Y00710433D03*
X00601378Y00707677D03*
X00599409Y00565945D03*
X00634843D03*
Y00526614D03*
X00599409D03*
Y00294252D03*
X00634843D03*
Y00254921D03*
X00599409D03*
X00601378Y00113189D03*
X00617126Y00110433D03*
X00632874Y00113189D03*
X01014764D03*
X01030512Y00110433D03*
X01046260Y00113189D03*
X01048228Y00254921D03*
X01012799D03*
Y00294252D03*
X01048228D03*
Y00526614D03*
X01012795D03*
Y00565945D03*
X01048228D03*
X01046260Y00707677D03*
X01030512Y00710433D03*
X01014764Y00707677D03*
Y00939961D03*
X01030512Y00937205D03*
X01046260Y00939961D03*
X01048228Y01081693D03*
X01012799D03*
Y01121024D03*
X01048228D03*
X00859854Y01128937D03*
X00853661Y01113583D03*
X00840630Y01103898D03*
X00807008D03*
X00793976Y01113583D03*
X00787799Y01128937D03*
X00794331Y01145472D03*
X00787795Y01160472D03*
X00787799Y01180118D03*
X00787807Y01199764D03*
X00859854Y01199803D03*
Y01180118D03*
Y01160433D03*
X00853307Y01145472D03*
X01012795Y01353386D03*
X01048228D03*
Y01392717D03*
X01012795D03*
X01426181D03*
X01461614D03*
X01461610Y01353386D03*
X01426181D03*
Y01121024D03*
X01461614D03*
Y01081693D03*
X01426181D03*
X01428150Y00939961D03*
X01443898Y00937205D03*
X01459646Y00939961D03*
Y00707677D03*
X01443898Y00710433D03*
X01428150Y00707677D03*
X01426181Y00565945D03*
X01461614D03*
Y00526614D03*
X01426181D03*
Y00294252D03*
X01461614D03*
Y00254921D03*
X01426181D03*
X01428150Y00113189D03*
X01443898Y00110433D03*
X01459646Y00113189D03*
Y01534449D03*
X01443898Y01537205D03*
X01428150Y01534449D03*
X01046260D03*
X01030512Y01537205D03*
X01014764Y01534449D03*
X00632874D03*
X00617126Y01537205D03*
X00601378Y01534449D03*
X00219488D03*
X00203740Y01537205D03*
X00187992Y01534449D03*
X00177992Y00125709D03*
Y00140039D03*
X00186024Y00152520D03*
X00221457D03*
X00229488Y00140039D03*
Y00125709D03*
Y00267441D03*
Y00281772D03*
X00177992D03*
Y00267441D03*
Y00539094D03*
Y00553425D03*
X00229488D03*
Y00539094D03*
X00221457Y00668346D03*
X00229488Y00680827D03*
Y00695157D03*
X00177992D03*
Y00680827D03*
X00186024Y00668346D03*
X00177992Y00952480D03*
Y00966811D03*
X00186024Y00979291D03*
X00221457D03*
X00229488Y00966811D03*
Y00952480D03*
Y01094213D03*
Y01108543D03*
X00177992D03*
Y01094213D03*
Y01365866D03*
Y01380197D03*
X00229488D03*
Y01365866D03*
X00591378D03*
Y01380197D03*
X00642874D03*
Y01365866D03*
Y01108543D03*
Y01094213D03*
X00591382D03*
Y01108543D03*
X00599409Y00979291D03*
X00591382Y00966811D03*
Y00952480D03*
X00642874D03*
Y00966811D03*
X00634843Y00979291D03*
X00642874Y00695157D03*
Y00680827D03*
X00634843Y00668346D03*
X00599409D03*
X00591378Y00680827D03*
Y00695157D03*
Y00553425D03*
Y00539094D03*
X00642874D03*
Y00553425D03*
Y00281772D03*
Y00267441D03*
X00591382D03*
Y00281772D03*
X00599409Y00152520D03*
X00591382Y00140039D03*
Y00125709D03*
X00642874D03*
Y00140039D03*
X00634843Y00152520D03*
X01012799D03*
X01004768Y00140039D03*
Y00125709D03*
X01056260D03*
Y00140039D03*
X01048228Y00152520D03*
X01056260Y00267441D03*
Y00281772D03*
X01004768D03*
Y00267441D03*
X01004764Y00539094D03*
Y00553425D03*
X01056260D03*
Y00539094D03*
X01048228Y00668346D03*
X01056260Y00680827D03*
Y00695157D03*
X01004764D03*
Y00680827D03*
X01012795Y00668346D03*
X01004768Y00952480D03*
Y00966811D03*
X01012799Y00979291D03*
X01048228D03*
X01056260Y00966811D03*
Y00952480D03*
Y01094213D03*
Y01108543D03*
X01004768D03*
Y01094213D03*
X00840630Y01157323D03*
X00823819Y01161260D03*
X00807008Y01157323D03*
X01004764Y01365866D03*
Y01380197D03*
X01056260D03*
Y01365866D03*
X01418150D03*
Y01380197D03*
X01469646D03*
Y01365866D03*
Y01108543D03*
Y01094213D03*
X01418150D03*
Y01108543D03*
X01426181Y00979291D03*
X01418154Y00966811D03*
Y00952480D03*
X01469646D03*
Y00966811D03*
X01461614Y00979291D03*
X01469646Y00695157D03*
Y00680827D03*
X01461614Y00668346D03*
X01426181D03*
X01418150Y00680827D03*
Y00695157D03*
Y00553425D03*
Y00539094D03*
X01469646D03*
Y00553425D03*
Y00281772D03*
Y00267441D03*
X01418154D03*
Y00281772D03*
X01426181Y00152520D03*
X01418154Y00140039D03*
Y00125709D03*
X01469646D03*
Y00140039D03*
X01461614Y00152520D03*
Y01495118D03*
X01469646Y01507598D03*
Y01521929D03*
X01418150D03*
Y01507598D03*
X01426181Y01495118D03*
X01048228D03*
X01056260Y01507598D03*
Y01521929D03*
X01004764D03*
Y01507598D03*
X01012795Y01495118D03*
X00634843D03*
X00642874Y01507598D03*
Y01521929D03*
X00591378D03*
Y01507598D03*
X00599409Y01495118D03*
X00221457D03*
X00229488Y01507598D03*
Y01521929D03*
X00177992D03*
Y01507598D03*
X00186024Y01495118D03*
X00088780Y00062795D03*
X00101370Y00058390D03*
X00113386Y00064173D03*
X00118898Y00079134D03*
X00087402Y00087402D03*
X00082996Y00074815D03*
X00074815Y00082996D03*
X00062795Y00088780D03*
X00058390Y00101366D03*
X00059087Y00117098D03*
X00092520Y00115354D03*
X00093189Y00101366D03*
X00092520Y00292126D03*
X00093189Y00306110D03*
X00087402Y00320079D03*
X00074815Y00324484D03*
X00082996Y00332665D03*
X00088780Y00344685D03*
X00101370Y00349091D03*
X00113386Y00343307D03*
X00118898Y00328346D03*
X00062795Y00318701D03*
X00058390Y00306110D03*
X00059087Y00290382D03*
X00088780Y00476181D03*
X00101366Y00471776D03*
X00113386Y00477559D03*
X00118898Y00492520D03*
X00087402Y00500787D03*
X00082996Y00488201D03*
X00074815Y00496382D03*
X00062795Y00502165D03*
X00058390Y00514756D03*
X00059083Y00530484D03*
X00092520Y00528740D03*
X00093185Y00514756D03*
X00092520Y00705512D03*
X00093185Y00719500D03*
X00087402Y00733465D03*
X00074815Y00737870D03*
X00082996Y00746051D03*
X00088780Y00758071D03*
X00101366Y00762476D03*
X00113386Y00756693D03*
X00118898Y00741732D03*
X00062795Y00732087D03*
X00058390Y00719500D03*
X00059083Y00703768D03*
X00088780Y00889567D03*
X00101370Y00885161D03*
X00113386Y00890945D03*
X00118898Y00905906D03*
X00087402Y00914173D03*
X00082996Y00901587D03*
X00074815Y00909768D03*
X00062795Y00915551D03*
X00058390Y00928138D03*
X00059087Y00943870D03*
X00092520Y00942126D03*
X00093189Y00928138D03*
X00092520Y01118898D03*
X00093189Y01132882D03*
X00087402Y01146850D03*
X00074815Y01151256D03*
X00082996Y01159437D03*
X00088780Y01171457D03*
X00101370Y01175862D03*
X00113386Y01170079D03*
X00118898Y01155118D03*
X00062795Y01145472D03*
X00058390Y01132882D03*
X00059087Y01117154D03*
X00062795Y01328937D03*
X00058390Y01341528D03*
X00059083Y01357256D03*
X00092520Y01355512D03*
X00093185Y01341528D03*
X00087402Y01327559D03*
X00074815Y01323154D03*
X00082992Y01314972D03*
X00088780Y01302953D03*
X00101366Y01298547D03*
X00113386Y01304331D03*
X00118898Y01319291D03*
X00288583D03*
X00294094Y01304331D03*
X00306114Y01298547D03*
X00318701Y01302953D03*
X00324484Y01314972D03*
X00332669Y01323154D03*
X00320079Y01327559D03*
X00314295Y01341528D03*
X00314961Y01355512D03*
X00348398Y01357256D03*
X00349091Y01341528D03*
X00344685Y01328937D03*
X00476181D03*
X00471776Y01341528D03*
X00472469Y01357256D03*
X00505906Y01355512D03*
X00506571Y01341528D03*
X00500787Y01327559D03*
X00496382Y01314972D03*
X00488201Y01323154D03*
X00502165Y01302953D03*
X00514752Y01298547D03*
X00526772Y01304331D03*
X00532283Y01319291D03*
X00526772Y01170079D03*
X00514756Y01175862D03*
X00502165Y01171457D03*
X00496382Y01159437D03*
X00488201Y01151256D03*
X00500787Y01146850D03*
X00506575Y01132882D03*
X00505906Y01118898D03*
X00472472Y01117154D03*
X00471776Y01132882D03*
X00476181Y01145472D03*
X00532283Y01155118D03*
X00701972D03*
X00707480Y01170079D03*
X00719500Y01175862D03*
X00732087Y01171457D03*
X00737874Y01159437D03*
X00746055Y01151256D03*
X00733465Y01146850D03*
X00727681Y01132882D03*
X00728350Y01118898D03*
X00761783Y01117154D03*
X00762480Y01132882D03*
X00758071Y01145472D03*
X00889567D03*
X00885161Y01132882D03*
X00885858Y01117154D03*
X00919291Y01118898D03*
X00919961Y01132882D03*
X00914173Y01146850D03*
X00901587Y01151256D03*
X00909768Y01159437D03*
X00915551Y01171457D03*
X00928142Y01175862D03*
X00940157Y01170079D03*
X00945669Y01155118D03*
X00940157Y01304331D03*
X00928138Y01298547D03*
X00915551Y01302953D03*
X00909768Y01314972D03*
X00901583Y01323154D03*
X00914173Y01327559D03*
X00919957Y01341528D03*
X00919291Y01355512D03*
X00885854Y01357256D03*
X00885161Y01341528D03*
X00889567Y01328937D03*
X00945669Y01319291D03*
X01115354D03*
X01120866Y01304331D03*
X01132886Y01298547D03*
X01145472Y01302953D03*
X01151256Y01314972D03*
X01159441Y01323154D03*
X01146850Y01327559D03*
X01141067Y01341528D03*
X01141732Y01355512D03*
X01175169Y01357256D03*
X01175862Y01341528D03*
X01171457Y01328937D03*
X01302953D03*
X01298543Y01341528D03*
X01299240Y01357256D03*
X01332677Y01355512D03*
X01333343Y01341528D03*
X01327559Y01327559D03*
X01323150Y01314972D03*
X01314969Y01323154D03*
X01328937Y01302953D03*
X01341524Y01298547D03*
X01353543Y01304331D03*
X01359055Y01319291D03*
X01353543Y01170079D03*
X01341524Y01175862D03*
X01328937Y01171457D03*
X01323150Y01159437D03*
X01314969Y01151256D03*
X01327559Y01146850D03*
X01333343Y01132882D03*
X01332677Y01118898D03*
X01299240Y01117154D03*
X01298543Y01132882D03*
X01302953Y01145472D03*
X01359055Y01155118D03*
X01528740D03*
X01534252Y01170079D03*
X01546272Y01175862D03*
X01558858Y01171457D03*
X01564646Y01159437D03*
X01572827Y01151256D03*
X01560236Y01146850D03*
X01554453Y01132882D03*
X01555118Y01118898D03*
X01588555Y01117154D03*
X01589252Y01132882D03*
X01584843Y01145472D03*
X01558858Y01302953D03*
X01546272Y01298547D03*
X01534252Y01304331D03*
X01528740Y01319291D03*
X01560236Y01327559D03*
X01564646Y01314972D03*
X01572827Y01323154D03*
X01584843Y01328937D03*
X01589252Y01341528D03*
X01588555Y01357256D03*
X01555118Y01355512D03*
X01554453Y01341528D03*
X01555118Y00942126D03*
X01554453Y00928138D03*
X01560236Y00914173D03*
X01564646Y00901587D03*
X01572827Y00909768D03*
X01584843Y00915551D03*
X01589252Y00928138D03*
X01588555Y00943870D03*
X01558858Y00889567D03*
X01546272Y00885161D03*
X01534252Y00890945D03*
X01528740Y00905906D03*
X01534252Y00756693D03*
X01546272Y00762476D03*
X01558858Y00758071D03*
X01564646Y00746051D03*
X01572827Y00737870D03*
X01560236Y00733465D03*
X01554453Y00719500D03*
X01555118Y00705512D03*
X01588555Y00703768D03*
X01589252Y00719500D03*
X01584843Y00732087D03*
X01528740Y00741732D03*
X01359055D03*
X01353543Y00756693D03*
X01341524Y00762476D03*
X01328937Y00758071D03*
X01323154Y00746051D03*
X01314972Y00737870D03*
X01327559Y00733465D03*
X01333343Y00719500D03*
X01332677Y00705512D03*
X01299240Y00703768D03*
X01298547Y00719500D03*
X01302953Y00732087D03*
X01171457D03*
X01175862Y00719500D03*
X01175169Y00703768D03*
X01141732Y00705512D03*
X01141067Y00719500D03*
X01146850Y00733465D03*
X01151256Y00746051D03*
X01159441Y00737870D03*
X01145472Y00758071D03*
X01132886Y00762476D03*
X01120866Y00756693D03*
X01115354Y00741732D03*
X01120866Y00890945D03*
X01132886Y00885161D03*
X01145472Y00889567D03*
X01151260Y00901587D03*
X01159441Y00909768D03*
X01146850Y00914173D03*
X01141067Y00928138D03*
X01141736Y00942126D03*
X01175169Y00943870D03*
X01175866Y00928138D03*
X01171457Y00915551D03*
X01115358Y00905906D03*
X00945669D03*
X00940157Y00890945D03*
X00928142Y00885161D03*
X00915551Y00889567D03*
X00909768Y00901587D03*
X00901587Y00909768D03*
X00914173Y00914173D03*
X00919961Y00928138D03*
X00919291Y00942126D03*
X00885858Y00943870D03*
X00885161Y00928138D03*
X00889567Y00915551D03*
X00758071D03*
X00762480Y00928138D03*
X00761783Y00943870D03*
X00728350Y00942126D03*
X00727681Y00928138D03*
X00733465Y00914173D03*
X00737874Y00901587D03*
X00746055Y00909768D03*
X00732087Y00889567D03*
X00719500Y00885161D03*
X00707480Y00890945D03*
X00701972Y00905906D03*
X00707480Y00756693D03*
X00719500Y00762476D03*
X00732087Y00758071D03*
X00737874Y00746051D03*
X00746055Y00737870D03*
X00733465Y00733465D03*
X00727681Y00719500D03*
X00728346Y00705512D03*
X00761783Y00703768D03*
X00762480Y00719500D03*
X00758071Y00732087D03*
X00701969Y00741732D03*
X00532283D03*
X00526772Y00756693D03*
X00514752Y00762476D03*
X00502165Y00758071D03*
X00496382Y00746051D03*
X00488201Y00737870D03*
X00500787Y00733465D03*
X00506571Y00719500D03*
X00505906Y00705512D03*
X00472469Y00703768D03*
X00471776Y00719500D03*
X00476181Y00732087D03*
X00344685D03*
X00349094Y00719500D03*
X00348398Y00703768D03*
X00314961Y00705512D03*
X00314295Y00719500D03*
X00320079Y00733465D03*
X00324488Y00746051D03*
X00332669Y00737870D03*
X00318701Y00758071D03*
X00306114Y00762476D03*
X00294094Y00756693D03*
X00288583Y00741732D03*
X00294098Y00890945D03*
X00306114Y00885161D03*
X00318701Y00889567D03*
X00324488Y00901587D03*
X00332669Y00909768D03*
X00320083Y00914173D03*
X00314295Y00928138D03*
X00314965Y00942126D03*
X00348398Y00943870D03*
X00349094Y00928138D03*
X00344689Y00915551D03*
X00288587Y00905906D03*
X00476181Y00915551D03*
X00471776Y00928138D03*
X00472472Y00943870D03*
X00505906Y00942126D03*
X00506575Y00928138D03*
X00500787Y00914173D03*
X00496382Y00901587D03*
X00488201Y00909768D03*
X00502165Y00889567D03*
X00514756Y00885161D03*
X00526772Y00890945D03*
X00532283Y00905906D03*
X00348398Y01117154D03*
X00349094Y01132882D03*
X00344689Y01145472D03*
X00332669Y01151256D03*
X00324488Y01159437D03*
X00320083Y01146850D03*
X00314295Y01132882D03*
X00314965Y01118898D03*
X00318701Y01171457D03*
X00306114Y01175862D03*
X00294098Y01170079D03*
X00288587Y01155118D03*
X00707480Y01304331D03*
X00719500Y01298547D03*
X00732087Y01302953D03*
X00737870Y01314972D03*
X00746055Y01323154D03*
X00733465Y01327559D03*
X00727681Y01341528D03*
X00728346Y01355512D03*
X00761783Y01357256D03*
X00762476Y01341528D03*
X00758071Y01328937D03*
X00701969Y01319291D03*
X01120866Y01170079D03*
X01132886Y01175862D03*
X01145472Y01171457D03*
X01151260Y01159437D03*
X01159441Y01151256D03*
X01146850Y01146850D03*
X01141067Y01132882D03*
X01141736Y01118898D03*
X01175169Y01117154D03*
X01175866Y01132882D03*
X01171457Y01145472D03*
X01115358Y01155118D03*
X01299240Y00943870D03*
X01298543Y00928138D03*
X01302953Y00915551D03*
X01314969Y00909768D03*
X01323150Y00901587D03*
X01327559Y00914173D03*
X01333343Y00928138D03*
X01332677Y00942126D03*
X01328937Y00889567D03*
X01341524Y00885161D03*
X01353543Y00890945D03*
X01359055Y00905906D03*
X01332677Y00528740D03*
X01333343Y00514756D03*
X01327559Y00500787D03*
X01323154Y00488201D03*
X01314972Y00496382D03*
X01302953Y00502165D03*
X01298547Y00514756D03*
X01299240Y00530484D03*
X01328937Y00476181D03*
X01341524Y00471776D03*
X01353543Y00477559D03*
X01359055Y00492520D03*
X01353543Y00343307D03*
X01341528Y00349091D03*
X01328937Y00344685D03*
X01323154Y00332665D03*
X01314972Y00324484D03*
X01327559Y00320079D03*
X01333346Y00306110D03*
X01332677Y00292126D03*
X01299244Y00290382D03*
X01298547Y00306110D03*
X01302953Y00318701D03*
X01359055Y00328346D03*
X01528740D03*
X01534256Y00343307D03*
X01546272Y00349091D03*
X01558862Y00344685D03*
X01564646Y00332665D03*
X01572827Y00324484D03*
X01560240Y00320079D03*
X01554453Y00306110D03*
X01555122Y00292126D03*
X01588555Y00290382D03*
X01589252Y00306110D03*
X01584846Y00318701D03*
X01558858Y00476181D03*
X01546272Y00471776D03*
X01534252Y00477559D03*
X01528740Y00492520D03*
X01560236Y00500787D03*
X01564646Y00488201D03*
X01572827Y00496382D03*
X01584843Y00502165D03*
X01589252Y00514756D03*
X01588555Y00530484D03*
X01555118Y00528740D03*
X01554453Y00514756D03*
X01175862D03*
X01175169Y00530484D03*
X01171457Y00502165D03*
X01159441Y00496382D03*
X01151256Y00488201D03*
X01146850Y00500787D03*
X01141067Y00514756D03*
X01141732Y00528740D03*
X01145472Y00476181D03*
X01132886Y00471776D03*
X01120866Y00477559D03*
X01115354Y00492520D03*
X01120866Y00343307D03*
X01132886Y00349091D03*
X01145472Y00344685D03*
X01151260Y00332665D03*
X01159441Y00324484D03*
X01146850Y00320079D03*
X01141067Y00306110D03*
X01141736Y00292126D03*
X01175169Y00290382D03*
X01175866Y00306110D03*
X01171457Y00318701D03*
X01115358Y00328346D03*
X00945669D03*
X00940157Y00343307D03*
X00928142Y00349091D03*
X00915551Y00344685D03*
X00909768Y00332665D03*
X00901587Y00324484D03*
X00914173Y00320079D03*
X00919961Y00306110D03*
X00919291Y00292126D03*
X00885858Y00290382D03*
X00885161Y00306110D03*
X00889567Y00318701D03*
X00758071D03*
X00762480Y00306110D03*
X00761783Y00290382D03*
X00728350Y00292126D03*
X00727681Y00306110D03*
X00733465Y00320079D03*
X00737874Y00332665D03*
X00746055Y00324484D03*
X00732087Y00344685D03*
X00719500Y00349091D03*
X00707480Y00343307D03*
X00701972Y00328346D03*
X00707480Y00477559D03*
X00719500Y00471776D03*
X00732087Y00476181D03*
X00737874Y00488201D03*
X00746055Y00496382D03*
X00733465Y00500787D03*
X00727681Y00514756D03*
X00728346Y00528740D03*
X00761783Y00530484D03*
X00762480Y00514756D03*
X00758071Y00502165D03*
X00701969Y00492520D03*
X00532283D03*
X00526772Y00477559D03*
X00514752Y00471776D03*
X00502165Y00476181D03*
X00496382Y00488201D03*
X00488201Y00496382D03*
X00500787Y00500787D03*
X00506571Y00514756D03*
X00505906Y00528740D03*
X00472469Y00530484D03*
X00471776Y00514756D03*
X00476181Y00502165D03*
X00344685D03*
X00349094Y00514756D03*
X00348398Y00530484D03*
X00314961Y00528740D03*
X00314295Y00514756D03*
X00320079Y00500787D03*
X00324488Y00488201D03*
X00332669Y00496382D03*
X00318701Y00476181D03*
X00306114Y00471776D03*
X00294094Y00477559D03*
X00288583Y00492520D03*
X00294098Y00343307D03*
X00306114Y00349091D03*
X00318701Y00344685D03*
X00324488Y00332665D03*
X00332669Y00324484D03*
X00320083Y00320079D03*
X00314295Y00306110D03*
X00314965Y00292126D03*
X00348398Y00290382D03*
X00349094Y00306110D03*
X00344689Y00318701D03*
X00288587Y00328346D03*
X00476181Y00318701D03*
X00471776Y00306110D03*
X00472472Y00290382D03*
X00505906Y00292126D03*
X00506575Y00306110D03*
X00500787Y00320079D03*
X00488201Y00324484D03*
X00496382Y00332665D03*
X00502165Y00344685D03*
X00514756Y00349091D03*
X00526772Y00343307D03*
X00532283Y00328346D03*
X00505906Y00115354D03*
X00506575Y00101366D03*
X00500787Y00087402D03*
X00496382Y00074815D03*
X00488201Y00082996D03*
X00476181Y00088780D03*
X00471776Y00101366D03*
X00472472Y00117098D03*
X00502165Y00062795D03*
X00514756Y00058390D03*
X00526772Y00064173D03*
X00532283Y00079134D03*
X00701972D03*
X00707480Y00064173D03*
X00719500Y00058390D03*
X00732087Y00062795D03*
X00737874Y00074815D03*
X00746055Y00082996D03*
X00733465Y00087402D03*
X00727681Y00101366D03*
X00728350Y00115354D03*
X00761783Y00117098D03*
X00762480Y00101366D03*
X00758071Y00088780D03*
X00889567D03*
X00885161Y00101366D03*
X00885858Y00117098D03*
X00919291Y00115354D03*
X00919961Y00101366D03*
X00914173Y00087402D03*
X00909768Y00074815D03*
X00901587Y00082996D03*
X00915551Y00062795D03*
X00928142Y00058390D03*
X00940157Y00064173D03*
X00945669Y00079134D03*
X01115358D03*
X01120866Y00064173D03*
X01132886Y00058390D03*
X01145472Y00062795D03*
X01151260Y00074815D03*
X01159441Y00082996D03*
X01146850Y00087402D03*
X01141067Y00101366D03*
X01141736Y00115354D03*
X01175169Y00117098D03*
X01175866Y00101366D03*
X01171457Y00088780D03*
X01302953D03*
X01298547Y00101366D03*
X01299244Y00117098D03*
X01332677Y00115354D03*
X01333346Y00101366D03*
X01327559Y00087402D03*
X01323154Y00074815D03*
X01314972Y00082996D03*
X01328937Y00062795D03*
X01341528Y00058390D03*
X01353543Y00064173D03*
X01359055Y00079134D03*
X01528740D03*
X01534256Y00064173D03*
X01546272Y00058390D03*
X01558862Y00062795D03*
X01564646Y00074815D03*
X01572827Y00082996D03*
X01560240Y00087402D03*
X01554453Y00101366D03*
X01555122Y00115354D03*
X01588555Y00117098D03*
X01589252Y00101366D03*
X01584846Y00088780D03*
X00940157Y00477559D03*
X00928138Y00471776D03*
X00915551Y00476181D03*
X00909768Y00488201D03*
X00901587Y00496382D03*
X00914173Y00500787D03*
X00919957Y00514756D03*
X00919291Y00528740D03*
X00885854Y00530484D03*
X00885161Y00514756D03*
X00889567Y00502165D03*
X00945669Y00492520D03*
X00919291Y00705512D03*
X00919957Y00719500D03*
X00914173Y00733465D03*
X00901587Y00737870D03*
X00909768Y00746051D03*
X00915551Y00758071D03*
X00928138Y00762476D03*
X00940157Y00756693D03*
X00945669Y00741732D03*
X00889567Y00732087D03*
X00885161Y00719500D03*
X00885854Y00703768D03*
X00348398Y00117098D03*
X00349094Y00101366D03*
X00344689Y00088780D03*
X00332669Y00082996D03*
X00324488Y00074815D03*
X00320083Y00087402D03*
X00314295Y00101366D03*
X00314965Y00115354D03*
X00318701Y00062795D03*
X00306114Y00058390D03*
X00294098Y00064173D03*
X00288587Y00079134D03*
X00314961Y01532283D03*
X00314295Y01546272D03*
X00320079Y01560236D03*
X00332669Y01564642D03*
X00324484Y01572823D03*
X00318701Y01584843D03*
X00306114Y01589248D03*
X00294094Y01583465D03*
X00288583Y01568504D03*
X00344685Y01558858D03*
X00349091Y01546272D03*
X00348398Y01530539D03*
X00472469D03*
X00471776Y01546272D03*
X00476181Y01558858D03*
X00488201Y01564642D03*
X00496382Y01572823D03*
X00500787Y01560236D03*
X00506571Y01546272D03*
X00505906Y01532283D03*
X00502165Y01584843D03*
X00514752Y01589248D03*
X00526772Y01583465D03*
X00532283Y01568504D03*
X00701969D03*
X00707480Y01583465D03*
X00719500Y01589248D03*
X00732087Y01584843D03*
X00737870Y01572823D03*
X00746055Y01564642D03*
X00733465Y01560236D03*
X00727681Y01546272D03*
X00728346Y01532283D03*
X00761783Y01530539D03*
X00762476Y01546272D03*
X00758071Y01558858D03*
X00889567D03*
X00885161Y01546272D03*
X00885854Y01530539D03*
X00919291Y01532283D03*
X00919957Y01546272D03*
X00914173Y01560236D03*
X00901583Y01564642D03*
X00909768Y01572823D03*
X00915551Y01584843D03*
X00928138Y01589248D03*
X00940157Y01583465D03*
X00945669Y01568504D03*
X01115354D03*
X01120866Y01583465D03*
X01132886Y01589248D03*
X01145472Y01584843D03*
X01151256Y01572823D03*
X01159441Y01564642D03*
X01146850Y01560236D03*
X01141067Y01546272D03*
X01141732Y01532283D03*
X01175169Y01530539D03*
X01175862Y01546272D03*
X01171457Y01558858D03*
X01302953D03*
X01298543Y01546272D03*
X01299240Y01530539D03*
X01332677Y01532283D03*
X01333343Y01546272D03*
X01327559Y01560236D03*
X01314969Y01564642D03*
X01323150Y01572823D03*
X01328937Y01584843D03*
X01341524Y01589248D03*
X01353543Y01583465D03*
X01359055Y01568504D03*
X01528740D03*
X01534252Y01583465D03*
X01546272Y01589248D03*
X01558858Y01584843D03*
X01564646Y01572823D03*
X01572827Y01564642D03*
X01560236Y01560236D03*
X01554453Y01546272D03*
X01555118Y01532283D03*
X01588555Y01530539D03*
X01589252Y01546272D03*
X01584843Y01558858D03*
X00118898Y01568504D03*
X00113386Y01583465D03*
X00101366Y01589248D03*
X00088780Y01584843D03*
X00082992Y01572823D03*
X00074815Y01564642D03*
X00087402Y01560236D03*
X00093185Y01546272D03*
X00092520Y01532283D03*
X00059083Y01530539D03*
X00058390Y01546272D03*
X00062795Y01558858D03*
X00186024Y00304646D03*
Y00318752D03*
Y00332854D03*
Y00346961D03*
Y00361067D03*
Y00375169D03*
Y00389276D03*
Y00403382D03*
X00186028Y00417484D03*
Y00431591D03*
Y00445697D03*
Y00459803D03*
Y00473906D03*
Y00488012D03*
Y00502118D03*
Y00516220D03*
X00221461D03*
Y00502114D03*
Y00488012D03*
Y00473906D03*
Y00459799D03*
Y00445697D03*
Y00431591D03*
Y00389276D03*
X00221457Y00375169D03*
Y00361067D03*
Y00346961D03*
Y00332854D03*
Y00318752D03*
Y00304646D03*
Y01131417D03*
Y01145524D03*
Y01159626D03*
Y01173732D03*
Y01187839D03*
Y01201941D03*
Y01216047D03*
X00186024D03*
Y01230154D03*
Y01244256D03*
Y01258362D03*
Y01272465D03*
Y01286571D03*
Y01300677D03*
Y01314783D03*
Y01328886D03*
Y01342992D03*
X00221457D03*
Y01328886D03*
Y01314783D03*
Y01300677D03*
Y01286571D03*
Y01272465D03*
Y01258362D03*
X00186024Y01201941D03*
Y01187835D03*
Y01173732D03*
Y01159626D03*
Y01145524D03*
Y01131417D03*
X00236335Y01216047D03*
X00251213D03*
X00266091D03*
X00280969D03*
X00295846D03*
X00310720D03*
X00325598D03*
X00340476D03*
X00355354D03*
X00370232D03*
X00385110Y01216043D03*
Y01201240D03*
Y01186441D03*
Y01171642D03*
Y01156839D03*
Y01142039D03*
Y01127236D03*
Y01112437D03*
Y01097634D03*
Y01082835D03*
Y01068031D03*
Y01053232D03*
Y01038429D03*
Y01023630D03*
Y01008831D03*
Y00994028D03*
Y00979228D03*
Y00964425D03*
Y00949626D03*
Y00934823D03*
Y00920024D03*
Y00905220D03*
Y00890421D03*
Y00875622D03*
Y00860819D03*
Y00846020D03*
Y00831217D03*
Y00816417D03*
Y00801614D03*
Y00786815D03*
Y00772012D03*
Y00757213D03*
Y00742409D03*
Y00727610D03*
Y00712807D03*
Y00698008D03*
Y00683209D03*
Y00668406D03*
Y00653606D03*
Y00638803D03*
Y00624004D03*
Y00609201D03*
Y00594402D03*
Y00579598D03*
Y00564799D03*
Y00550000D03*
Y00535197D03*
Y00520398D03*
Y00505594D03*
Y00490795D03*
Y00475992D03*
Y00461193D03*
Y00446390D03*
Y00431591D03*
X00370232D03*
X00355354D03*
X00340480D03*
X00325602D03*
X00310724D03*
X00295846D03*
X00280969D03*
X00266091D03*
X00251213D03*
X00236339D03*
X00236579Y00389276D03*
X00251697D03*
X00266815D03*
X00281933D03*
X00297051D03*
X00312169D03*
X00327287D03*
X00342406D03*
X00357524D03*
X00372642D03*
X00387760D03*
X00402878D03*
X00417996D03*
X00433114D03*
X00448232D03*
X00463350D03*
X00478469D03*
X00493587D03*
X00508705D03*
X00523823D03*
X00538941D03*
X00554059D03*
X00569177D03*
X00584291D03*
X00599409D03*
Y00375169D03*
Y00361067D03*
Y00346961D03*
Y00332854D03*
Y00318752D03*
Y00304646D03*
X00634843D03*
Y00318752D03*
Y00332854D03*
Y00346961D03*
Y00361067D03*
Y00375169D03*
Y00389276D03*
Y00403382D03*
Y00417484D03*
Y00431591D03*
Y00445697D03*
Y00459803D03*
Y00473906D03*
Y00488012D03*
Y00502118D03*
Y00516220D03*
X00599409D03*
Y00502114D03*
Y00488012D03*
Y00473906D03*
Y00459799D03*
Y00445697D03*
Y00431591D03*
X00584531D03*
X00569654D03*
X00554780D03*
X00539902D03*
X00525024D03*
X00510146D03*
X00495268D03*
X00480390D03*
X00465512D03*
X00450634D03*
X00435756D03*
Y00446469D03*
Y00461346D03*
Y00476220D03*
Y00491098D03*
Y00505976D03*
Y00520854D03*
Y00535732D03*
Y00550610D03*
Y00565488D03*
Y00580362D03*
Y00595240D03*
Y00610118D03*
Y00624996D03*
Y00639874D03*
Y00654752D03*
Y00669630D03*
Y00684508D03*
Y00699382D03*
Y00714260D03*
Y00729138D03*
Y00744016D03*
Y00758894D03*
Y00773772D03*
Y00788646D03*
Y00803524D03*
X00450681D03*
X00465606D03*
X00480535D03*
X00495457D03*
X00510386D03*
X00525311D03*
X00540236D03*
X00555161D03*
X00570087D03*
X00585012D03*
X00599937D03*
X00614862D03*
X00629787D03*
X00644713D03*
X00659638D03*
X00674563D03*
X00689488D03*
X00704413D03*
X00719339D03*
X00734264D03*
X00749189D03*
X00764114D03*
X00779039D03*
X00793969D03*
X00808894D03*
X00838744D03*
X00853669D03*
X00868598D03*
X00883524D03*
X00898449D03*
X00913374D03*
X00928299D03*
X00943224D03*
X00958150D03*
X00973075D03*
X00988000D03*
X01002925D03*
X01017850D03*
X01032776D03*
X01047701D03*
X01062626D03*
X01077551D03*
X01092476D03*
X01107402D03*
X01122327D03*
X01137256D03*
X01152177D03*
X01167106D03*
X01182031D03*
X01196957D03*
X01211882D03*
Y00788646D03*
Y00773772D03*
Y00758894D03*
Y00744016D03*
Y00729138D03*
Y00714260D03*
Y00699382D03*
Y00684508D03*
Y00669630D03*
Y00654752D03*
Y00639874D03*
Y00624996D03*
Y00610118D03*
Y00595240D03*
Y00580362D03*
Y00565488D03*
Y00550610D03*
Y00535732D03*
Y00520854D03*
Y00505976D03*
Y00491098D03*
Y00476220D03*
Y00461346D03*
Y00446469D03*
Y00431591D03*
X01197000D03*
X01182126D03*
X01167248D03*
X01152370D03*
X01137492D03*
X01122614D03*
X01107736D03*
X01092862D03*
X01077984D03*
X01063106D03*
X01048228D03*
Y00445697D03*
Y00459799D03*
Y00473906D03*
Y00488012D03*
Y00502114D03*
Y00516220D03*
X01012795D03*
Y00502118D03*
Y00488012D03*
Y00473906D03*
Y00459803D03*
Y00445697D03*
Y00431591D03*
Y00417484D03*
Y00403382D03*
Y00389276D03*
Y00375169D03*
Y00361067D03*
Y00346961D03*
Y00332854D03*
Y00318752D03*
Y00304646D03*
X01048224D03*
Y00318752D03*
Y00332854D03*
Y00346961D03*
Y00361067D03*
Y00375169D03*
Y00389276D03*
X01063346D03*
X01078465D03*
X01093579D03*
X01108697D03*
X01123815D03*
X01138933D03*
X01154051D03*
X01169169D03*
X01184287D03*
X01199406D03*
X01214524D03*
X01229642D03*
X01244760D03*
X01259878D03*
X01274996D03*
X01290114D03*
X01305232D03*
X01320350D03*
X01335469D03*
X01350587D03*
X01365705D03*
X01380823D03*
X01395941D03*
X01411059D03*
X01426177D03*
X01426181Y00375169D03*
Y00361067D03*
Y00346961D03*
Y00332854D03*
Y00318752D03*
Y00304646D03*
X01461614D03*
Y00318752D03*
Y00332854D03*
Y00346961D03*
Y00361067D03*
Y00375169D03*
Y00389276D03*
Y00403382D03*
X01461610Y00417484D03*
Y00431591D03*
Y00445697D03*
Y00459803D03*
Y00473906D03*
Y00488012D03*
Y00502118D03*
Y00516220D03*
X01426177D03*
Y00502114D03*
Y00488012D03*
Y00473906D03*
Y00459799D03*
Y00445697D03*
Y00431591D03*
X01411303D03*
X01396425D03*
X01381547D03*
X01366669D03*
X01351791D03*
X01336913D03*
X01322035D03*
X01307161D03*
X01292283D03*
X01277406D03*
X01262528D03*
Y00446390D03*
Y00461193D03*
Y00475992D03*
Y00490795D03*
Y00505594D03*
Y00520398D03*
Y00535197D03*
Y00550000D03*
Y00564799D03*
Y00579598D03*
Y00594402D03*
Y00609201D03*
Y00624004D03*
Y00638803D03*
Y00653606D03*
Y00668406D03*
Y00683209D03*
Y00698008D03*
Y00712807D03*
Y00727610D03*
Y00742409D03*
Y00757213D03*
Y00772012D03*
Y00786815D03*
Y00801614D03*
Y00816417D03*
Y00831217D03*
Y00846020D03*
Y00860819D03*
Y00875622D03*
Y00890421D03*
Y00905220D03*
Y00920024D03*
Y00934823D03*
Y00949626D03*
Y00964425D03*
Y00979228D03*
Y00994028D03*
Y01008831D03*
Y01023630D03*
Y01038429D03*
Y01053232D03*
Y01068031D03*
Y01082835D03*
Y01097634D03*
Y01112437D03*
Y01127236D03*
Y01142039D03*
Y01156839D03*
Y01171642D03*
Y01186441D03*
Y01201240D03*
Y01216043D03*
X01277406Y01216047D03*
X01292283D03*
X01307161D03*
X01322039D03*
X01336917D03*
X01351791D03*
X01366669D03*
X01381547D03*
X01396425D03*
X01411303D03*
X01426181D03*
Y01201941D03*
Y01187839D03*
Y01173732D03*
Y01159626D03*
Y01145524D03*
Y01131417D03*
X01461614D03*
Y01145524D03*
Y01159626D03*
Y01173732D03*
Y01187835D03*
Y01201941D03*
Y01216047D03*
Y01230154D03*
Y01244256D03*
Y01258362D03*
Y01272465D03*
Y01286571D03*
Y01300677D03*
Y01314783D03*
Y01328886D03*
Y01342992D03*
X01426181D03*
Y01328886D03*
Y01314783D03*
Y01300677D03*
Y01286571D03*
Y01272465D03*
Y01258362D03*
X01411063D03*
X01395945D03*
X01380827D03*
X01365709D03*
X01350591D03*
X01335472D03*
X01320354D03*
X01305236D03*
X01290118D03*
X01275000D03*
X01259882D03*
X01244764D03*
X01229650D03*
X01214528D03*
X01199413D03*
X01184295D03*
X01169177D03*
X01154059D03*
X01138941D03*
X01123823D03*
X01108705D03*
X01093587D03*
X01078469D03*
X01063350D03*
X01048232D03*
X01048228Y01272465D03*
Y01286571D03*
Y01300677D03*
Y01314783D03*
Y01328886D03*
Y01342992D03*
X01012795D03*
Y01328886D03*
Y01314783D03*
Y01300677D03*
Y01286571D03*
Y01272465D03*
Y01258362D03*
Y01244256D03*
X01012799Y01230154D03*
Y01216047D03*
Y01201941D03*
Y01187835D03*
Y01173732D03*
Y01159626D03*
Y01145524D03*
Y01131417D03*
X01048228D03*
Y01145524D03*
Y01159626D03*
Y01173732D03*
Y01187839D03*
Y01201941D03*
Y01216047D03*
X01063106D03*
X01077984D03*
X01092862D03*
X01107740D03*
X01122618D03*
X01137492D03*
X01152370D03*
X01167248D03*
X01182126D03*
X01197004D03*
X01211882D03*
Y01201169D03*
Y01186291D03*
Y01171413D03*
Y01156539D03*
Y01141661D03*
Y01126783D03*
Y01111906D03*
Y01097028D03*
Y01082150D03*
Y01067276D03*
Y01052398D03*
Y01037520D03*
Y01022642D03*
Y01007764D03*
Y00992886D03*
Y00978008D03*
Y00963130D03*
Y00948256D03*
Y00933378D03*
Y00918500D03*
Y00903622D03*
Y00888744D03*
Y00873866D03*
Y00858992D03*
X01211878Y00844114D03*
X01196953D03*
X01182028D03*
X01167102D03*
X01152177D03*
X01137252D03*
X01122327D03*
X01107402D03*
X01092476D03*
X01077547D03*
X01062626D03*
X01047697D03*
X01032772D03*
X01017846D03*
X01002921D03*
X00987996D03*
X00973071D03*
X00958146D03*
X00943220D03*
X00928295D03*
X00913370D03*
X00898445D03*
X00883520D03*
X00868594D03*
X00853669D03*
X00838744D03*
X00808894D03*
X00793969D03*
X00779039D03*
X00764114D03*
X00749189D03*
X00734264D03*
X00719339D03*
X00704413D03*
X00689488D03*
X00674563D03*
X00659638D03*
X00644713D03*
X00629787D03*
X00614862D03*
X00599937D03*
X00585012D03*
X00570087D03*
X00555161D03*
X00540236D03*
X00525311D03*
X00510386D03*
X00495457D03*
X00480535D03*
X00465606D03*
X00450681D03*
X00435756D03*
Y00858992D03*
Y00873866D03*
Y00888744D03*
Y00903622D03*
Y00918500D03*
Y00933378D03*
Y00948256D03*
Y00963130D03*
Y00978008D03*
Y00992886D03*
Y01007764D03*
Y01022642D03*
Y01037520D03*
Y01052398D03*
Y01067276D03*
Y01082150D03*
Y01097028D03*
Y01111906D03*
Y01126783D03*
Y01141661D03*
Y01156539D03*
Y01171413D03*
Y01186291D03*
Y01201169D03*
Y01216047D03*
X00450634D03*
X00465512D03*
X00480390D03*
X00495268D03*
X00510146D03*
X00525024D03*
X00539898D03*
X00554776D03*
X00569654D03*
X00584531D03*
X00599409D03*
Y01201941D03*
Y01187839D03*
Y01173732D03*
Y01159626D03*
Y01145524D03*
Y01131417D03*
X00634839D03*
Y01145524D03*
Y01159626D03*
Y01173732D03*
Y01187835D03*
Y01201941D03*
Y01216047D03*
Y01230154D03*
X00634843Y01244256D03*
Y01258362D03*
Y01272465D03*
Y01286571D03*
Y01300677D03*
Y01314783D03*
Y01328886D03*
Y01342992D03*
X00599409D03*
Y01328886D03*
Y01314783D03*
Y01300677D03*
Y01286571D03*
Y01272465D03*
X00599406Y01258362D03*
X00584287D03*
X00569169D03*
X00554051D03*
X00538933D03*
X00523815D03*
X00508697D03*
X00493579D03*
X00478461D03*
X00463346D03*
X00448228D03*
X00433106D03*
X00417988D03*
X00402874D03*
X00387756D03*
X00372638D03*
X00357520D03*
X00342402D03*
X00327283D03*
X00312165D03*
X00297047D03*
X00281929D03*
X00266811D03*
X00251693D03*
X00236575D03*
X00075787Y00100394D03*
X00100402Y00075862D03*
Y00331618D03*
X00075787Y00307087D03*
Y00513780D03*
X00100402Y00489248D03*
Y00745004D03*
X00075787Y00720472D03*
Y00927165D03*
X00100402Y00902634D03*
Y01158390D03*
X00075787Y01133858D03*
Y01340551D03*
X00100402Y01316020D03*
X00307079D03*
X00331693Y01340551D03*
X00489173D03*
X00513787Y01316020D03*
Y01158390D03*
X00489173Y01133858D03*
X00331693D03*
X00307083Y01158390D03*
Y00902634D03*
X00331693Y00927165D03*
X00489173D03*
X00513787Y00902634D03*
Y00745004D03*
X00489173Y00720472D03*
X00331693D03*
X00307079Y00745004D03*
Y00489248D03*
X00331693Y00513780D03*
X00489173D03*
X00513787Y00489248D03*
Y00331618D03*
X00489173Y00307087D03*
X00331693D03*
X00307083Y00331618D03*
Y00075862D03*
X00331693Y00100394D03*
X00489173D03*
X00513787Y00075862D03*
X00720469D03*
X00745079Y00100394D03*
X00902559D03*
X00927173Y00075862D03*
X01133854D03*
X01158465Y00100394D03*
X01315945D03*
X01340559Y00075862D03*
X01547240D03*
X01571850Y00100394D03*
Y00307087D03*
X01547240Y00331618D03*
X01547236Y00489248D03*
X01571850Y00513780D03*
Y00720472D03*
X01547236Y00745004D03*
Y00902634D03*
X01571850Y00927165D03*
Y01133858D03*
X01547236Y01158390D03*
Y01316020D03*
X01571850Y01340551D03*
X01340559Y01316020D03*
X01315945Y01340551D03*
X01158465D03*
X01133850Y01316020D03*
X01133854Y01158390D03*
X01158465Y01133858D03*
X01315945D03*
X01340559Y01158390D03*
Y00902634D03*
X01315945Y00927165D03*
X01158465D03*
X01133854Y00902634D03*
X01133850Y00745004D03*
X01158465Y00720472D03*
X01315945D03*
X01340559Y00745004D03*
Y00489248D03*
X01315945Y00513780D03*
X01158465D03*
X01133850Y00489248D03*
X01133854Y00331618D03*
X01158465Y00307087D03*
X01315945D03*
X01340559Y00331618D03*
X00927173D03*
X00902559Y00307087D03*
X00745079D03*
X00720469Y00331618D03*
X00720465Y00489248D03*
X00745079Y00513780D03*
X00902559D03*
X00927173Y00489248D03*
Y00745004D03*
X00902559Y00720472D03*
X00745079D03*
X00720465Y00745004D03*
X00720469Y00902634D03*
X00745079Y00927165D03*
X00902559D03*
X00927173Y00902634D03*
Y01158390D03*
X00902559Y01133858D03*
X00745079D03*
X00720469Y01158390D03*
X00720465Y01316020D03*
X00745079Y01340551D03*
X00902559D03*
X00927173Y01316020D03*
Y01571780D03*
X00902559Y01547244D03*
X00745079D03*
X00720465Y01571780D03*
X00513787D03*
X00489173Y01547244D03*
X00331701Y01547315D03*
X00307087Y01571850D03*
X01133850Y01571780D03*
X01158465Y01547244D03*
X01315945D03*
X01340559Y01571780D03*
X01547236D03*
X01571850Y01547244D03*
X00100402Y01571780D03*
X00075787Y01547244D03*
Y00118110D03*
X00106693Y00091339D03*
Y00316142D03*
X00075787Y00289370D03*
Y00531496D03*
X00106693Y00504724D03*
Y00729528D03*
X00075787Y00702756D03*
Y00944882D03*
X00106693Y00918110D03*
Y01142913D03*
X00075787Y01116142D03*
Y01358268D03*
X00106693Y01331496D03*
X00300787D03*
X00331693Y01358268D03*
X00489173D03*
X00520079Y01331496D03*
Y01142913D03*
X00489173Y01116142D03*
X00331693D03*
X00300791Y01142913D03*
Y00918110D03*
X00331693Y00944882D03*
X00489173D03*
X00520079Y00918110D03*
Y00729528D03*
X00489173Y00702756D03*
X00331693D03*
X00300787Y00729528D03*
Y00504724D03*
X00331693Y00531496D03*
X00489173D03*
X00520079Y00504724D03*
Y00316142D03*
X00489173Y00289370D03*
X00331693D03*
X00300791Y00316142D03*
Y00091339D03*
X00331693Y00118110D03*
X00489173D03*
X00520079Y00091339D03*
X00714173D03*
X00745079Y00118110D03*
X00902559D03*
X00933465Y00091339D03*
X01127559D03*
X01158465Y00118110D03*
X01315945D03*
X01346850Y00091339D03*
X01540945D03*
X01571850Y00118110D03*
Y00289370D03*
X01540945Y00316142D03*
Y00504724D03*
X01571850Y00531496D03*
Y00702756D03*
X01540945Y00729528D03*
Y00918110D03*
X01571850Y00944882D03*
Y01116142D03*
X01540945Y01142913D03*
Y01331496D03*
X01571850Y01358268D03*
X01346850Y01331496D03*
X01315945Y01358268D03*
X01158465D03*
X01127559Y01331496D03*
Y01142913D03*
X01158465Y01116142D03*
X01315945D03*
X01346850Y01142913D03*
Y00918110D03*
X01315945Y00944882D03*
X01158465D03*
X01127559Y00918110D03*
Y00729528D03*
X01158465Y00702756D03*
X01315945D03*
X01346850Y00729528D03*
Y00504724D03*
X01315945Y00531496D03*
X01158465D03*
X01127559Y00504724D03*
Y00316142D03*
X01158465Y00289370D03*
X01315945D03*
X01346850Y00316142D03*
X00933465D03*
X00902559Y00289370D03*
X00745079D03*
X00714173Y00316142D03*
Y00504724D03*
X00745079Y00531496D03*
X00902559D03*
X00933465Y00504724D03*
Y00729528D03*
X00902559Y00702756D03*
X00745079D03*
X00714173Y00729528D03*
Y00918110D03*
X00745079Y00944882D03*
X00902559D03*
X00933465Y00918110D03*
Y01142913D03*
X00902559Y01116142D03*
X00745079D03*
X00714173Y01142913D03*
Y01331496D03*
X00745079Y01358268D03*
X00902559D03*
X00933465Y01331496D03*
Y01556299D03*
X00902559Y01529528D03*
X00745079D03*
X00714173Y01556299D03*
X00520079D03*
X00489173Y01529528D03*
X00331693D03*
X00300787Y01556299D03*
X01127559D03*
X01158465Y01529528D03*
X01315945D03*
X01346850Y01556299D03*
X01540945D03*
X01571850Y01529528D03*
X00106693Y01556299D03*
X00075787Y01529528D03*
X00186024Y00167236D03*
Y00181953D03*
Y00196669D03*
Y00211386D03*
Y00226098D03*
Y00240815D03*
X00221457D03*
Y00226098D03*
Y00211386D03*
Y00196669D03*
Y00181953D03*
Y00167236D03*
Y00580051D03*
Y00594768D03*
Y00609480D03*
Y00624197D03*
Y00638913D03*
Y00653630D03*
X00186024D03*
Y00638913D03*
Y00624197D03*
Y00609480D03*
Y00594768D03*
Y00580051D03*
Y00994008D03*
Y01008724D03*
Y01023441D03*
Y01038157D03*
Y01052870D03*
Y01067587D03*
X00221457D03*
Y01052870D03*
Y01038157D03*
Y01023441D03*
Y01008724D03*
Y00994008D03*
Y01406823D03*
Y01421539D03*
Y01436252D03*
X00186024D03*
Y01421539D03*
Y01406823D03*
X00599409D03*
Y01421539D03*
Y01436252D03*
X00634843D03*
Y01421539D03*
Y01406823D03*
Y01067587D03*
Y01052870D03*
Y01038157D03*
Y01023441D03*
Y01008724D03*
Y00994008D03*
X00599409D03*
Y01008724D03*
Y01023441D03*
Y01038157D03*
Y01052870D03*
Y01067587D03*
X00809173Y01072602D03*
Y01057299D03*
Y01041996D03*
Y01026693D03*
Y01011386D03*
Y00996083D03*
Y00980780D03*
Y00965476D03*
Y00950173D03*
Y00934870D03*
Y00919567D03*
Y00904260D03*
Y00888957D03*
Y00873654D03*
Y00858350D03*
X00839024D03*
Y00873654D03*
Y00888957D03*
Y00904260D03*
Y00919567D03*
Y00934870D03*
Y00950173D03*
Y00965476D03*
Y00980780D03*
Y00996083D03*
Y01011386D03*
Y01026693D03*
Y01041996D03*
Y01057299D03*
Y01072602D03*
Y01087906D03*
X00809173D03*
X01012799Y01067587D03*
Y01052870D03*
Y01038157D03*
Y01023441D03*
Y01008724D03*
Y00994008D03*
X01048228D03*
Y01008724D03*
Y01023441D03*
Y01038157D03*
Y01052870D03*
Y01067587D03*
Y01406823D03*
Y01421539D03*
Y01436252D03*
X01012795D03*
Y01421539D03*
Y01406823D03*
X01426181D03*
Y01421539D03*
Y01436252D03*
X01461614D03*
Y01421539D03*
Y01406823D03*
Y01067587D03*
Y01052870D03*
Y01038157D03*
Y01023441D03*
Y01008724D03*
Y00994008D03*
X01426181D03*
Y01008724D03*
Y01023441D03*
Y01038157D03*
Y01052870D03*
Y01067587D03*
Y00653630D03*
Y00638913D03*
Y00624197D03*
Y00609480D03*
Y00594768D03*
Y00580051D03*
X01461614D03*
Y00594768D03*
Y00609480D03*
Y00624197D03*
Y00638913D03*
Y00653630D03*
Y00240815D03*
Y00226098D03*
Y00211386D03*
Y00196669D03*
Y00181953D03*
Y00167236D03*
X01426181D03*
Y00181953D03*
Y00196669D03*
Y00211386D03*
Y00226098D03*
Y00240815D03*
X01048228D03*
Y00226098D03*
Y00211386D03*
Y00196669D03*
Y00181953D03*
Y00167236D03*
X01012799D03*
Y00181953D03*
Y00196669D03*
Y00211386D03*
Y00226098D03*
Y00240815D03*
X01012795Y00580051D03*
Y00594768D03*
Y00609480D03*
Y00624197D03*
Y00638913D03*
Y00653630D03*
X01048228D03*
Y00638913D03*
Y00624197D03*
Y00609480D03*
Y00594768D03*
Y00580051D03*
X00634843D03*
Y00594768D03*
Y00609480D03*
Y00624197D03*
Y00638913D03*
Y00653630D03*
X00599409D03*
Y00638913D03*
Y00624197D03*
Y00609480D03*
Y00594768D03*
Y00580051D03*
Y00240815D03*
Y00226098D03*
Y00211386D03*
Y00196669D03*
Y00181953D03*
Y00167236D03*
X00634843D03*
Y00181953D03*
Y00196669D03*
Y00211386D03*
Y00226098D03*
Y00240815D03*
X00823819Y00803524D03*
X01012795Y01450969D03*
Y01465685D03*
Y01480402D03*
X01048228D03*
Y01465685D03*
Y01450969D03*
X01426181D03*
Y01465685D03*
Y01480402D03*
X01461614D03*
Y01465685D03*
Y01450969D03*
X00634843D03*
Y01465685D03*
Y01480402D03*
X00599409D03*
Y01465685D03*
Y01450969D03*
X00221457D03*
Y01465685D03*
Y01480402D03*
X00186024D03*
Y01465685D03*
Y01450969D03*
M02*
