*
%FSLAX26Y26*%
%MOIN*%
%ADD10C,0.053000*%
%IPPOS*%
%LN10a.gbx*%
%LPD*%
G75*
G36*
X00148138Y00053150D02*
Y00052650D01*
X00147638D01*
X00053150D01*
X00052650D01*
Y00053150D01*
Y00147638D01*
Y00148138D01*
X00053150D01*
X00147638D01*
X00148138D01*
Y00147638D01*
Y00053150D01*
G37*
G36*
Y00259843D02*
Y00259343D01*
X00147638D01*
X00053150D01*
X00052650D01*
Y00259843D01*
Y00354331D01*
Y00354831D01*
X00053150D01*
X00147638D01*
X00148138D01*
Y00354331D01*
Y00259843D01*
G37*
G36*
X00354831Y00053150D02*
Y00052650D01*
X00354331D01*
X00259843D01*
X00259343D01*
Y00053150D01*
Y00147638D01*
Y00148138D01*
X00259843D01*
X00354331D01*
X00354831D01*
Y00147638D01*
Y00053150D01*
G37*
G36*
Y00259843D02*
Y00259343D01*
X00354331D01*
X00259843D01*
X00259343D01*
Y00259843D01*
Y00354331D01*
Y00354831D01*
X00259843D01*
X00354331D01*
X00354831D01*
Y00354331D01*
Y00259843D01*
G37*
G36*
X00148138Y00466535D02*
Y00466035D01*
X00147638D01*
X00053150D01*
X00052650D01*
Y00466535D01*
Y00561024D01*
Y00561524D01*
X00053150D01*
X00147638D01*
X00148138D01*
Y00561024D01*
Y00466535D01*
G37*
G36*
Y00673228D02*
Y00672728D01*
X00147638D01*
X00053150D01*
X00052650D01*
Y00673228D01*
Y00767717D01*
Y00768217D01*
X00053150D01*
X00147638D01*
X00148138D01*
Y00767717D01*
Y00673228D01*
G37*
G36*
X00354831Y00466535D02*
Y00466035D01*
X00354331D01*
X00259843D01*
X00259343D01*
Y00466535D01*
Y00561024D01*
Y00561524D01*
X00259843D01*
X00354331D01*
X00354831D01*
Y00561024D01*
Y00466535D01*
G37*
G36*
Y00673228D02*
Y00672728D01*
X00354331D01*
X00259843D01*
X00259343D01*
Y00673228D01*
Y00767717D01*
Y00768217D01*
X00259843D01*
X00354331D01*
X00354831D01*
Y00767717D01*
Y00673228D01*
G37*
G36*
X00561524Y00053150D02*
Y00052650D01*
X00561024D01*
X00466535D01*
X00466035D01*
Y00053150D01*
Y00147638D01*
Y00148138D01*
X00466535D01*
X00561024D01*
X00561524D01*
Y00147638D01*
Y00053150D01*
G37*
G36*
Y00259843D02*
Y00259343D01*
X00561024D01*
X00466535D01*
X00466035D01*
Y00259843D01*
Y00354331D01*
Y00354831D01*
X00466535D01*
X00561024D01*
X00561524D01*
Y00354331D01*
Y00259843D01*
G37*
G36*
X00768217Y00053150D02*
Y00052650D01*
X00767717D01*
X00673228D01*
X00672728D01*
Y00053150D01*
Y00147638D01*
Y00148138D01*
X00673228D01*
X00767717D01*
X00768217D01*
Y00147638D01*
Y00053150D01*
G37*
G36*
Y00259843D02*
Y00259343D01*
X00767717D01*
X00673228D01*
X00672728D01*
Y00259843D01*
Y00354331D01*
Y00354831D01*
X00673228D01*
X00767717D01*
X00768217D01*
Y00354331D01*
Y00259843D01*
G37*
G36*
X00561524Y00466535D02*
Y00466035D01*
X00561024D01*
X00466535D01*
X00466035D01*
Y00466535D01*
Y00561024D01*
Y00561524D01*
X00466535D01*
X00561024D01*
X00561524D01*
Y00561024D01*
Y00466535D01*
G37*
G36*
Y00673228D02*
Y00672728D01*
X00561024D01*
X00466535D01*
X00466035D01*
Y00673228D01*
Y00767717D01*
Y00768217D01*
X00466535D01*
X00561024D01*
X00561524D01*
Y00767717D01*
Y00673228D01*
G37*
G36*
X00768217Y00466535D02*
Y00466035D01*
X00767717D01*
X00673228D01*
X00672728D01*
Y00466535D01*
Y00561024D01*
Y00561524D01*
X00673228D01*
X00767717D01*
X00768217D01*
Y00561024D01*
Y00466535D01*
G37*
G36*
Y00673228D02*
Y00672728D01*
X00767717D01*
X00673228D01*
X00672728D01*
Y00673228D01*
Y00767717D01*
Y00768217D01*
X00673228D01*
X00767717D01*
X00768217D01*
Y00767717D01*
Y00673228D01*
G37*
G36*
X00148138Y00879921D02*
Y00879421D01*
X00147638D01*
X00053150D01*
X00052650D01*
Y00879921D01*
Y00974409D01*
Y00974909D01*
X00053150D01*
X00147638D01*
X00148138D01*
Y00974409D01*
Y00879921D01*
G37*
G36*
Y01086614D02*
Y01086114D01*
X00147638D01*
X00053150D01*
X00052650D01*
Y01086614D01*
Y01181102D01*
Y01181602D01*
X00053150D01*
X00147638D01*
X00148138D01*
Y01181102D01*
Y01086614D01*
G37*
G36*
X00354831Y00879921D02*
Y00879421D01*
X00354331D01*
X00259843D01*
X00259343D01*
Y00879921D01*
Y00974409D01*
Y00974909D01*
X00259843D01*
X00354331D01*
X00354831D01*
Y00974409D01*
Y00879921D01*
G37*
G36*
Y01086614D02*
Y01086114D01*
X00354331D01*
X00259843D01*
X00259343D01*
Y01086614D01*
Y01181102D01*
Y01181602D01*
X00259843D01*
X00354331D01*
X00354831D01*
Y01181102D01*
Y01086614D01*
G37*
G36*
X00148138Y01293307D02*
Y01292807D01*
X00147638D01*
X00053150D01*
X00052650D01*
Y01293307D01*
Y01387795D01*
Y01388295D01*
X00053150D01*
X00147638D01*
X00148138D01*
Y01387795D01*
Y01293307D01*
G37*
G36*
Y01500000D02*
Y01499500D01*
X00147638D01*
X00053150D01*
X00052650D01*
Y01500000D01*
Y01594488D01*
Y01594988D01*
X00053150D01*
X00147638D01*
X00148138D01*
Y01594488D01*
Y01500000D01*
G37*
G36*
X00354831Y01293307D02*
Y01292807D01*
X00354331D01*
X00259843D01*
X00259343D01*
Y01293307D01*
Y01387795D01*
Y01388295D01*
X00259843D01*
X00354331D01*
X00354831D01*
Y01387795D01*
Y01293307D01*
G37*
G36*
Y01500000D02*
Y01499500D01*
X00354331D01*
X00259843D01*
X00259343D01*
Y01500000D01*
Y01594488D01*
Y01594988D01*
X00259843D01*
X00354331D01*
X00354831D01*
Y01594488D01*
Y01500000D01*
G37*
G36*
X00561524Y00879921D02*
Y00879421D01*
X00561024D01*
X00466535D01*
X00466035D01*
Y00879921D01*
Y00974409D01*
Y00974909D01*
X00466535D01*
X00561024D01*
X00561524D01*
Y00974409D01*
Y00879921D01*
G37*
G36*
Y01086614D02*
Y01086114D01*
X00561024D01*
X00466535D01*
X00466035D01*
Y01086614D01*
Y01181102D01*
Y01181602D01*
X00466535D01*
X00561024D01*
X00561524D01*
Y01181102D01*
Y01086614D01*
G37*
G36*
X00768217Y00879921D02*
Y00879421D01*
X00767717D01*
X00673228D01*
X00672728D01*
Y00879921D01*
Y00974409D01*
Y00974909D01*
X00673228D01*
X00767717D01*
X00768217D01*
Y00974409D01*
Y00879921D01*
G37*
G36*
Y01086614D02*
Y01086114D01*
X00767717D01*
X00673228D01*
X00672728D01*
Y01086614D01*
Y01181102D01*
Y01181602D01*
X00673228D01*
X00767717D01*
X00768217D01*
Y01181102D01*
Y01086614D01*
G37*
G36*
X00561524Y01293307D02*
Y01292807D01*
X00561024D01*
X00466535D01*
X00466035D01*
Y01293307D01*
Y01387795D01*
Y01388295D01*
X00466535D01*
X00561024D01*
X00561524D01*
Y01387795D01*
Y01293307D01*
G37*
G36*
Y01500000D02*
Y01499500D01*
X00561024D01*
X00466535D01*
X00466035D01*
Y01500000D01*
Y01594488D01*
Y01594988D01*
X00466535D01*
X00561024D01*
X00561524D01*
Y01594488D01*
Y01500000D01*
G37*
G36*
X00768217Y01293307D02*
Y01292807D01*
X00767717D01*
X00673228D01*
X00672728D01*
Y01293307D01*
Y01387795D01*
Y01388295D01*
X00673228D01*
X00767717D01*
X00768217D01*
Y01387795D01*
Y01293307D01*
G37*
G36*
Y01500000D02*
Y01499500D01*
X00767717D01*
X00673228D01*
X00672728D01*
Y01500000D01*
Y01594488D01*
Y01594988D01*
X00673228D01*
X00767717D01*
X00768217D01*
Y01594488D01*
Y01500000D01*
G37*
G36*
X00974909Y00053150D02*
Y00052650D01*
X00974409D01*
X00879921D01*
X00879421D01*
Y00053150D01*
Y00147638D01*
Y00148138D01*
X00879921D01*
X00974409D01*
X00974909D01*
Y00147638D01*
Y00053150D01*
G37*
G36*
Y00259843D02*
Y00259343D01*
X00974409D01*
X00879921D01*
X00879421D01*
Y00259843D01*
Y00354331D01*
Y00354831D01*
X00879921D01*
X00974409D01*
X00974909D01*
Y00354331D01*
Y00259843D01*
G37*
G36*
X01181602Y00053150D02*
Y00052650D01*
X01181102D01*
X01086614D01*
X01086114D01*
Y00053150D01*
Y00147638D01*
Y00148138D01*
X01086614D01*
X01181102D01*
X01181602D01*
Y00147638D01*
Y00053150D01*
G37*
G36*
Y00259843D02*
Y00259343D01*
X01181102D01*
X01086614D01*
X01086114D01*
Y00259843D01*
Y00354331D01*
Y00354831D01*
X01086614D01*
X01181102D01*
X01181602D01*
Y00354331D01*
Y00259843D01*
G37*
G36*
X00974909Y00466535D02*
Y00466035D01*
X00974409D01*
X00879921D01*
X00879421D01*
Y00466535D01*
Y00561024D01*
Y00561524D01*
X00879921D01*
X00974409D01*
X00974909D01*
Y00561024D01*
Y00466535D01*
G37*
G36*
Y00673228D02*
Y00672728D01*
X00974409D01*
X00879921D01*
X00879421D01*
Y00673228D01*
Y00767717D01*
Y00768217D01*
X00879921D01*
X00974409D01*
X00974909D01*
Y00767717D01*
Y00673228D01*
G37*
G36*
X01181602Y00466535D02*
Y00466035D01*
X01181102D01*
X01086614D01*
X01086114D01*
Y00466535D01*
Y00561024D01*
Y00561524D01*
X01086614D01*
X01181102D01*
X01181602D01*
Y00561024D01*
Y00466535D01*
G37*
G36*
Y00673228D02*
Y00672728D01*
X01181102D01*
X01086614D01*
X01086114D01*
Y00673228D01*
Y00767717D01*
Y00768217D01*
X01086614D01*
X01181102D01*
X01181602D01*
Y00767717D01*
Y00673228D01*
G37*
G36*
X01388295Y00053150D02*
Y00052650D01*
X01387795D01*
X01293307D01*
X01292807D01*
Y00053150D01*
Y00147638D01*
Y00148138D01*
X01293307D01*
X01387795D01*
X01388295D01*
Y00147638D01*
Y00053150D01*
G37*
G36*
Y00259843D02*
Y00259343D01*
X01387795D01*
X01293307D01*
X01292807D01*
Y00259843D01*
Y00354331D01*
Y00354831D01*
X01293307D01*
X01387795D01*
X01388295D01*
Y00354331D01*
Y00259843D01*
G37*
G36*
X01594988Y00053150D02*
Y00052650D01*
X01594488D01*
X01500000D01*
X01499500D01*
Y00053150D01*
Y00147638D01*
Y00148138D01*
X01500000D01*
X01594488D01*
X01594988D01*
Y00147638D01*
Y00053150D01*
G37*
G36*
Y00259843D02*
Y00259343D01*
X01594488D01*
X01500000D01*
X01499500D01*
Y00259843D01*
Y00354331D01*
Y00354831D01*
X01500000D01*
X01594488D01*
X01594988D01*
Y00354331D01*
Y00259843D01*
G37*
G36*
X01388295Y00466535D02*
Y00466035D01*
X01387795D01*
X01293307D01*
X01292807D01*
Y00466535D01*
Y00561024D01*
Y00561524D01*
X01293307D01*
X01387795D01*
X01388295D01*
Y00561024D01*
Y00466535D01*
G37*
G36*
Y00673228D02*
Y00672728D01*
X01387795D01*
X01293307D01*
X01292807D01*
Y00673228D01*
Y00767717D01*
Y00768217D01*
X01293307D01*
X01387795D01*
X01388295D01*
Y00767717D01*
Y00673228D01*
G37*
G36*
X01594988Y00466535D02*
Y00466035D01*
X01594488D01*
X01500000D01*
X01499500D01*
Y00466535D01*
Y00561024D01*
Y00561524D01*
X01500000D01*
X01594488D01*
X01594988D01*
Y00561024D01*
Y00466535D01*
G37*
G36*
Y00673228D02*
Y00672728D01*
X01594488D01*
X01500000D01*
X01499500D01*
Y00673228D01*
Y00767717D01*
Y00768217D01*
X01500000D01*
X01594488D01*
X01594988D01*
Y00767717D01*
Y00673228D01*
G37*
G36*
X00974909Y00879921D02*
Y00879421D01*
X00974409D01*
X00879921D01*
X00879421D01*
Y00879921D01*
Y00974409D01*
Y00974909D01*
X00879921D01*
X00974409D01*
X00974909D01*
Y00974409D01*
Y00879921D01*
G37*
G36*
Y01086614D02*
Y01086114D01*
X00974409D01*
X00879921D01*
X00879421D01*
Y01086614D01*
Y01181102D01*
Y01181602D01*
X00879921D01*
X00974409D01*
X00974909D01*
Y01181102D01*
Y01086614D01*
G37*
G36*
X01181602Y00879921D02*
Y00879421D01*
X01181102D01*
X01086614D01*
X01086114D01*
Y00879921D01*
Y00974409D01*
Y00974909D01*
X01086614D01*
X01181102D01*
X01181602D01*
Y00974409D01*
Y00879921D01*
G37*
G36*
Y01086614D02*
Y01086114D01*
X01181102D01*
X01086614D01*
X01086114D01*
Y01086614D01*
Y01181102D01*
Y01181602D01*
X01086614D01*
X01181102D01*
X01181602D01*
Y01181102D01*
Y01086614D01*
G37*
G36*
X01388295Y00879921D02*
Y00879421D01*
X01387795D01*
X01293307D01*
X01292807D01*
Y00879921D01*
Y00974409D01*
Y00974909D01*
X01293307D01*
X01387795D01*
X01388295D01*
Y00974409D01*
Y00879921D01*
G37*
G36*
Y01086614D02*
Y01086114D01*
X01387795D01*
X01293307D01*
X01292807D01*
Y01086614D01*
Y01181102D01*
Y01181602D01*
X01293307D01*
X01387795D01*
X01388295D01*
Y01181102D01*
Y01086614D01*
G37*
G36*
X01594988Y00879921D02*
Y00879421D01*
X01594488D01*
X01500000D01*
X01499500D01*
Y00879921D01*
Y00974409D01*
Y00974909D01*
X01500000D01*
X01594488D01*
X01594988D01*
Y00974409D01*
Y00879921D01*
G37*
G36*
Y01086614D02*
Y01086114D01*
X01594488D01*
X01500000D01*
X01499500D01*
Y01086614D01*
Y01181102D01*
Y01181602D01*
X01500000D01*
X01594488D01*
X01594988D01*
Y01181102D01*
Y01086614D01*
G37*
G36*
X00974909Y01293307D02*
Y01292807D01*
X00974409D01*
X00879921D01*
X00879421D01*
Y01293307D01*
Y01387795D01*
Y01388295D01*
X00879921D01*
X00974409D01*
X00974909D01*
Y01387795D01*
Y01293307D01*
G37*
G36*
Y01500000D02*
Y01499500D01*
X00974409D01*
X00879921D01*
X00879421D01*
Y01500000D01*
Y01594488D01*
Y01594988D01*
X00879921D01*
X00974409D01*
X00974909D01*
Y01594488D01*
Y01500000D01*
G37*
G36*
X01181602Y01293307D02*
Y01292807D01*
X01181102D01*
X01086614D01*
X01086114D01*
Y01293307D01*
Y01387795D01*
Y01388295D01*
X01086614D01*
X01181102D01*
X01181602D01*
Y01387795D01*
Y01293307D01*
G37*
G36*
Y01500000D02*
Y01499500D01*
X01181102D01*
X01086614D01*
X01086114D01*
Y01500000D01*
Y01594488D01*
Y01594988D01*
X01086614D01*
X01181102D01*
X01181602D01*
Y01594488D01*
Y01500000D01*
G37*
G36*
X01388295Y01293307D02*
Y01292807D01*
X01387795D01*
X01293307D01*
X01292807D01*
Y01293307D01*
Y01387795D01*
Y01388295D01*
X01293307D01*
X01387795D01*
X01388295D01*
Y01387795D01*
Y01293307D01*
G37*
G36*
Y01500000D02*
Y01499500D01*
X01387795D01*
X01293307D01*
X01292807D01*
Y01500000D01*
Y01594488D01*
Y01594988D01*
X01293307D01*
X01387795D01*
X01388295D01*
Y01594488D01*
Y01500000D01*
G37*
G36*
X01594988Y01293307D02*
Y01292807D01*
X01594488D01*
X01500000D01*
X01499500D01*
Y01293307D01*
Y01387795D01*
Y01388295D01*
X01500000D01*
X01594488D01*
X01594988D01*
Y01387795D01*
Y01293307D01*
G37*
G36*
Y01500000D02*
Y01499500D01*
X01594488D01*
X01500000D01*
X01499500D01*
Y01500000D01*
Y01594488D01*
Y01594988D01*
X01500000D01*
X01594488D01*
X01594988D01*
Y01594488D01*
Y01500000D01*
G37*
G54D10*
X00457480Y-00236220D03*
Y01883859D03*
X01190157Y-00236220D03*
M02*
