*
%FSLAX26Y26*%
%MOIN*%
%ADD10C,0.005500*%
%IPPOS*%
%LNc-9.gbx*%
%LPD*%
G75*
G54D10*
X00075787Y00100394D03*
X00100402Y00075862D03*
Y00331618D03*
X00075787Y00307087D03*
Y00513780D03*
X00100402Y00489248D03*
Y00745004D03*
X00075787Y00720472D03*
Y00927165D03*
X00100402Y00902634D03*
Y01158390D03*
X00075787Y01133858D03*
Y01340551D03*
X00100402Y01316020D03*
X00307079D03*
X00331693Y01340551D03*
X00489173D03*
X00513787Y01316020D03*
Y01158390D03*
X00489173Y01133858D03*
X00331693D03*
X00307083Y01158390D03*
Y00902634D03*
X00331693Y00927165D03*
X00489173D03*
X00513787Y00902634D03*
Y00745004D03*
X00489173Y00720472D03*
X00331693D03*
X00307079Y00745004D03*
Y00489248D03*
X00331693Y00513780D03*
X00489173D03*
X00513787Y00489248D03*
Y00331618D03*
X00489173Y00307087D03*
X00331693D03*
X00307083Y00331618D03*
Y00075862D03*
X00331693Y00100394D03*
X00489173D03*
X00513787Y00075862D03*
X00720469D03*
X00745079Y00100394D03*
X00902559D03*
X00927173Y00075862D03*
X01133854D03*
X01158465Y00100394D03*
X01315945D03*
X01340559Y00075862D03*
X01547240D03*
X01571850Y00100394D03*
Y00307087D03*
X01547240Y00331618D03*
X01547236Y00489248D03*
X01571850Y00513780D03*
Y00720472D03*
X01547236Y00745004D03*
Y00902634D03*
X01571850Y00927165D03*
Y01133858D03*
X01547236Y01158390D03*
Y01316020D03*
X01571850Y01340551D03*
X01340559Y01316020D03*
X01315945Y01340551D03*
X01158465D03*
X01133850Y01316020D03*
X01133854Y01158390D03*
X01158465Y01133858D03*
X01315945D03*
X01340559Y01158390D03*
Y00902634D03*
X01315945Y00927165D03*
X01158465D03*
X01133854Y00902634D03*
X01133850Y00745004D03*
X01158465Y00720472D03*
X01315945D03*
X01340559Y00745004D03*
Y00489248D03*
X01315945Y00513780D03*
X01158465D03*
X01133850Y00489248D03*
X01133854Y00331618D03*
X01158465Y00307087D03*
X01315945D03*
X01340559Y00331618D03*
X00927173D03*
X00902559Y00307087D03*
X00745079D03*
X00720469Y00331618D03*
X00720465Y00489248D03*
X00745079Y00513780D03*
X00902559D03*
X00927173Y00489248D03*
Y00745004D03*
X00902559Y00720472D03*
X00745079D03*
X00720465Y00745004D03*
X00720469Y00902634D03*
X00745079Y00927165D03*
X00902559D03*
X00927173Y00902634D03*
Y01158390D03*
X00902559Y01133858D03*
X00745079D03*
X00720469Y01158390D03*
X00720465Y01316020D03*
X00745079Y01340551D03*
X00902559D03*
X00927173Y01316020D03*
Y01571780D03*
X00902559Y01547244D03*
X00745079D03*
X00720465Y01571780D03*
X00513787D03*
X00489173Y01547244D03*
X00331701Y01547315D03*
X00307087Y01571850D03*
X01133850Y01571780D03*
X01158465Y01547244D03*
X01315945D03*
X01340559Y01571780D03*
X01547236D03*
X01571850Y01547244D03*
X00100402Y01571780D03*
X00075787Y01547244D03*
M02*
