*
%FSLAX26Y26*%
%MOIN*%
%ADD10C,0.007500*%
%IPPOS*%
%LNlc.gbx*%
%LPD*%
G75*
G54D10*
X00075787Y00100394D03*
X00100402Y00075862D03*
Y00331618D03*
X00075787Y00307087D03*
Y00513780D03*
X00100402Y00489248D03*
Y00745004D03*
X00075787Y00720472D03*
Y00927165D03*
X00100402Y00902634D03*
Y01158390D03*
X00075787Y01133858D03*
Y01340551D03*
X00100402Y01316020D03*
X00307079D03*
X00331693Y01340551D03*
X00489173D03*
X00513787Y01316020D03*
Y01158390D03*
X00489173Y01133858D03*
X00331693D03*
X00307083Y01158390D03*
Y00902634D03*
X00331693Y00927165D03*
X00489173D03*
X00513787Y00902634D03*
Y00745004D03*
X00489173Y00720472D03*
X00331693D03*
X00307079Y00745004D03*
Y00489248D03*
X00331693Y00513780D03*
X00489173D03*
X00513787Y00489248D03*
Y00331618D03*
X00489173Y00307087D03*
X00331693D03*
X00307083Y00331618D03*
Y00075862D03*
X00331693Y00100394D03*
X00489173D03*
X00513787Y00075862D03*
X00720469D03*
X00745079Y00100394D03*
X00902559D03*
X00927173Y00075862D03*
X01133854D03*
X01158465Y00100394D03*
X01315945D03*
X01340559Y00075862D03*
X01547240D03*
X01571850Y00100394D03*
Y00307087D03*
X01547240Y00331618D03*
X01547236Y00489248D03*
X01571850Y00513780D03*
Y00720472D03*
X01547236Y00745004D03*
Y00902634D03*
X01571850Y00927165D03*
Y01133858D03*
X01547236Y01158390D03*
Y01316020D03*
X01571850Y01340551D03*
X01340559Y01316020D03*
X01315945Y01340551D03*
X01158465D03*
X01133850Y01316020D03*
X01133854Y01158390D03*
X01158465Y01133858D03*
X01315945D03*
X01340559Y01158390D03*
Y00902634D03*
X01315945Y00927165D03*
X01158465D03*
X01133854Y00902634D03*
X01133850Y00745004D03*
X01158465Y00720472D03*
X01315945D03*
X01340559Y00745004D03*
Y00489248D03*
X01315945Y00513780D03*
X01158465D03*
X01133850Y00489248D03*
X01133854Y00331618D03*
X01158465Y00307087D03*
X01315945D03*
X01340559Y00331618D03*
X00927173D03*
X00902559Y00307087D03*
X00745079D03*
X00720469Y00331618D03*
X00720465Y00489248D03*
X00745079Y00513780D03*
X00902559D03*
X00927173Y00489248D03*
Y00745004D03*
X00902559Y00720472D03*
X00745079D03*
X00720465Y00745004D03*
X00720469Y00902634D03*
X00745079Y00927165D03*
X00902559D03*
X00927173Y00902634D03*
Y01158390D03*
X00902559Y01133858D03*
X00745079D03*
X00720469Y01158390D03*
X00720465Y01316020D03*
X00745079Y01340551D03*
X00902559D03*
X00927173Y01316020D03*
Y01571780D03*
X00902559Y01547244D03*
X00745079D03*
X00720465Y01571780D03*
X00513787D03*
X00489173Y01547244D03*
X00331701Y01547315D03*
X00307087Y01571850D03*
X01133850Y01571780D03*
X01158465Y01547244D03*
X01315945D03*
X01340559Y01571780D03*
X01547236D03*
X01571850Y01547244D03*
X00100402Y01571780D03*
X00075787Y01547244D03*
G36*
X00068037Y00100394D02*
G02X00068037Y00100394I00007750J00000000D01*
G37*
G36*
X00092652Y00075862D02*
G02X00092652Y00075862I00007750J00000000D01*
G37*
G36*
Y00331618D02*
G02X00092652Y00331618I00007750J00000000D01*
G37*
G36*
X00068037Y00307087D02*
G02X00068037Y00307087I00007750J00000000D01*
G37*
G36*
Y00513780D02*
G02X00068037Y00513780I00007750J00000000D01*
G37*
G36*
X00092652Y00489248D02*
G02X00092652Y00489248I00007750J00000000D01*
G37*
G36*
Y00745004D02*
G02X00092652Y00745004I00007750J00000000D01*
G37*
G36*
X00068037Y00720472D02*
G02X00068037Y00720472I00007750J00000000D01*
G37*
G36*
Y00927165D02*
G02X00068037Y00927165I00007750J00000000D01*
G37*
G36*
X00092652Y00902634D02*
G02X00092652Y00902634I00007750J00000000D01*
G37*
G36*
Y01158390D02*
G02X00092652Y01158390I00007750J00000000D01*
G37*
G36*
X00068037Y01133858D02*
G02X00068037Y01133858I00007750J00000000D01*
G37*
G36*
Y01340551D02*
G02X00068037Y01340551I00007750J00000000D01*
G37*
G36*
X00092652Y01316020D02*
G02X00092652Y01316020I00007750J00000000D01*
G37*
G36*
X00299329D02*
G02X00299329Y01316020I00007750J00000000D01*
G37*
G36*
X00323943Y01340551D02*
G02X00323943Y01340551I00007750J00000000D01*
G37*
G36*
X00481423D02*
G02X00481423Y01340551I00007750J00000000D01*
G37*
G36*
X00506037Y01316020D02*
G02X00506037Y01316020I00007750J00000000D01*
G37*
G36*
Y01158390D02*
G02X00506037Y01158390I00007750J00000000D01*
G37*
G36*
X00481423Y01133858D02*
G02X00481423Y01133858I00007750J00000000D01*
G37*
G36*
X00323943D02*
G02X00323943Y01133858I00007750J00000000D01*
G37*
G36*
X00299333Y01158390D02*
G02X00299333Y01158390I00007750J00000000D01*
G37*
G36*
Y00902634D02*
G02X00299333Y00902634I00007750J00000000D01*
G37*
G36*
X00323943Y00927165D02*
G02X00323943Y00927165I00007750J00000000D01*
G37*
G36*
X00481423D02*
G02X00481423Y00927165I00007750J00000000D01*
G37*
G36*
X00506037Y00902634D02*
G02X00506037Y00902634I00007750J00000000D01*
G37*
G36*
Y00745004D02*
G02X00506037Y00745004I00007750J00000000D01*
G37*
G36*
X00481423Y00720472D02*
G02X00481423Y00720472I00007750J00000000D01*
G37*
G36*
X00323943D02*
G02X00323943Y00720472I00007750J00000000D01*
G37*
G36*
X00299329Y00745004D02*
G02X00299329Y00745004I00007750J00000000D01*
G37*
G36*
Y00489248D02*
G02X00299329Y00489248I00007750J00000000D01*
G37*
G36*
X00323943Y00513780D02*
G02X00323943Y00513780I00007750J00000000D01*
G37*
G36*
X00481423D02*
G02X00481423Y00513780I00007750J00000000D01*
G37*
G36*
X00506037Y00489248D02*
G02X00506037Y00489248I00007750J00000000D01*
G37*
G36*
Y00331618D02*
G02X00506037Y00331618I00007750J00000000D01*
G37*
G36*
X00481423Y00307087D02*
G02X00481423Y00307087I00007750J00000000D01*
G37*
G36*
X00323943D02*
G02X00323943Y00307087I00007750J00000000D01*
G37*
G36*
X00299333Y00331618D02*
G02X00299333Y00331618I00007750J00000000D01*
G37*
G36*
Y00075862D02*
G02X00299333Y00075862I00007750J00000000D01*
G37*
G36*
X00323943Y00100394D02*
G02X00323943Y00100394I00007750J00000000D01*
G37*
G36*
X00481423D02*
G02X00481423Y00100394I00007750J00000000D01*
G37*
G36*
X00506037Y00075862D02*
G02X00506037Y00075862I00007750J00000000D01*
G37*
G36*
X00712719D02*
G02X00712719Y00075862I00007750J00000000D01*
G37*
G36*
X00737329Y00100394D02*
G02X00737329Y00100394I00007750J00000000D01*
G37*
G36*
X00894809D02*
G02X00894809Y00100394I00007750J00000000D01*
G37*
G36*
X00919423Y00075862D02*
G02X00919423Y00075862I00007750J00000000D01*
G37*
G36*
X01126104D02*
G02X01126104Y00075862I00007750J00000000D01*
G37*
G36*
X01150715Y00100394D02*
G02X01150715Y00100394I00007750J00000000D01*
G37*
G36*
X01308195D02*
G02X01308195Y00100394I00007750J00000000D01*
G37*
G36*
X01332809Y00075862D02*
G02X01332809Y00075862I00007750J00000000D01*
G37*
G36*
X01539490D02*
G02X01539490Y00075862I00007750J00000000D01*
G37*
G36*
X01564100Y00100394D02*
G02X01564100Y00100394I00007750J00000000D01*
G37*
G36*
Y00307087D02*
G02X01564100Y00307087I00007750J00000000D01*
G37*
G36*
X01539490Y00331618D02*
G02X01539490Y00331618I00007750J00000000D01*
G37*
G36*
X01539486Y00489248D02*
G02X01539486Y00489248I00007750J00000000D01*
G37*
G36*
X01564100Y00513780D02*
G02X01564100Y00513780I00007750J00000000D01*
G37*
G36*
Y00720472D02*
G02X01564100Y00720472I00007750J00000000D01*
G37*
G36*
X01539486Y00745004D02*
G02X01539486Y00745004I00007750J00000000D01*
G37*
G36*
Y00902634D02*
G02X01539486Y00902634I00007750J00000000D01*
G37*
G36*
X01564100Y00927165D02*
G02X01564100Y00927165I00007750J00000000D01*
G37*
G36*
Y01133858D02*
G02X01564100Y01133858I00007750J00000000D01*
G37*
G36*
X01539486Y01158390D02*
G02X01539486Y01158390I00007750J00000000D01*
G37*
G36*
Y01316020D02*
G02X01539486Y01316020I00007750J00000000D01*
G37*
G36*
X01564100Y01340551D02*
G02X01564100Y01340551I00007750J00000000D01*
G37*
G36*
X01332809Y01316020D02*
G02X01332809Y01316020I00007750J00000000D01*
G37*
G36*
X01308195Y01340551D02*
G02X01308195Y01340551I00007750J00000000D01*
G37*
G36*
X01150715D02*
G02X01150715Y01340551I00007750J00000000D01*
G37*
G36*
X01126100Y01316020D02*
G02X01126100Y01316020I00007750J00000000D01*
G37*
G36*
X01126104Y01158390D02*
G02X01126104Y01158390I00007750J00000000D01*
G37*
G36*
X01150715Y01133858D02*
G02X01150715Y01133858I00007750J00000000D01*
G37*
G36*
X01308195D02*
G02X01308195Y01133858I00007750J00000000D01*
G37*
G36*
X01332809Y01158390D02*
G02X01332809Y01158390I00007750J00000000D01*
G37*
G36*
Y00902634D02*
G02X01332809Y00902634I00007750J00000000D01*
G37*
G36*
X01308195Y00927165D02*
G02X01308195Y00927165I00007750J00000000D01*
G37*
G36*
X01150715D02*
G02X01150715Y00927165I00007750J00000000D01*
G37*
G36*
X01126104Y00902634D02*
G02X01126104Y00902634I00007750J00000000D01*
G37*
G36*
X01126100Y00745004D02*
G02X01126100Y00745004I00007750J00000000D01*
G37*
G36*
X01150715Y00720472D02*
G02X01150715Y00720472I00007750J00000000D01*
G37*
G36*
X01308195D02*
G02X01308195Y00720472I00007750J00000000D01*
G37*
G36*
X01332809Y00745004D02*
G02X01332809Y00745004I00007750J00000000D01*
G37*
G36*
Y00489248D02*
G02X01332809Y00489248I00007750J00000000D01*
G37*
G36*
X01308195Y00513780D02*
G02X01308195Y00513780I00007750J00000000D01*
G37*
G36*
X01150715D02*
G02X01150715Y00513780I00007750J00000000D01*
G37*
G36*
X01126100Y00489248D02*
G02X01126100Y00489248I00007750J00000000D01*
G37*
G36*
X01126104Y00331618D02*
G02X01126104Y00331618I00007750J00000000D01*
G37*
G36*
X01150715Y00307087D02*
G02X01150715Y00307087I00007750J00000000D01*
G37*
G36*
X01308195D02*
G02X01308195Y00307087I00007750J00000000D01*
G37*
G36*
X01332809Y00331618D02*
G02X01332809Y00331618I00007750J00000000D01*
G37*
G36*
X00919423D02*
G02X00919423Y00331618I00007750J00000000D01*
G37*
G36*
X00894809Y00307087D02*
G02X00894809Y00307087I00007750J00000000D01*
G37*
G36*
X00737329D02*
G02X00737329Y00307087I00007750J00000000D01*
G37*
G36*
X00712719Y00331618D02*
G02X00712719Y00331618I00007750J00000000D01*
G37*
G36*
X00712715Y00489248D02*
G02X00712715Y00489248I00007750J00000000D01*
G37*
G36*
X00737329Y00513780D02*
G02X00737329Y00513780I00007750J00000000D01*
G37*
G36*
X00894809D02*
G02X00894809Y00513780I00007750J00000000D01*
G37*
G36*
X00919423Y00489248D02*
G02X00919423Y00489248I00007750J00000000D01*
G37*
G36*
Y00745004D02*
G02X00919423Y00745004I00007750J00000000D01*
G37*
G36*
X00894809Y00720472D02*
G02X00894809Y00720472I00007750J00000000D01*
G37*
G36*
X00737329D02*
G02X00737329Y00720472I00007750J00000000D01*
G37*
G36*
X00712715Y00745004D02*
G02X00712715Y00745004I00007750J00000000D01*
G37*
G36*
X00712719Y00902634D02*
G02X00712719Y00902634I00007750J00000000D01*
G37*
G36*
X00737329Y00927165D02*
G02X00737329Y00927165I00007750J00000000D01*
G37*
G36*
X00894809D02*
G02X00894809Y00927165I00007750J00000000D01*
G37*
G36*
X00919423Y00902634D02*
G02X00919423Y00902634I00007750J00000000D01*
G37*
G36*
Y01158390D02*
G02X00919423Y01158390I00007750J00000000D01*
G37*
G36*
X00894809Y01133858D02*
G02X00894809Y01133858I00007750J00000000D01*
G37*
G36*
X00737329D02*
G02X00737329Y01133858I00007750J00000000D01*
G37*
G36*
X00712719Y01158390D02*
G02X00712719Y01158390I00007750J00000000D01*
G37*
G36*
X00712715Y01316020D02*
G02X00712715Y01316020I00007750J00000000D01*
G37*
G36*
X00737329Y01340551D02*
G02X00737329Y01340551I00007750J00000000D01*
G37*
G36*
X00894809D02*
G02X00894809Y01340551I00007750J00000000D01*
G37*
G36*
X00919423Y01316020D02*
G02X00919423Y01316020I00007750J00000000D01*
G37*
G36*
Y01571780D02*
G02X00919423Y01571780I00007750J00000000D01*
G37*
G36*
X00894809Y01547244D02*
G02X00894809Y01547244I00007750J00000000D01*
G37*
G36*
X00737329D02*
G02X00737329Y01547244I00007750J00000000D01*
G37*
G36*
X00712715Y01571780D02*
G02X00712715Y01571780I00007750J00000000D01*
G37*
G36*
X00506037D02*
G02X00506037Y01571780I00007750J00000000D01*
G37*
G36*
X00481423Y01547244D02*
G02X00481423Y01547244I00007750J00000000D01*
G37*
G36*
X00323951Y01547315D02*
G02X00323951Y01547315I00007750J00000000D01*
G37*
G36*
X00299337Y01571850D02*
G02X00299337Y01571850I00007750J00000000D01*
G37*
G36*
X01126100Y01571780D02*
G02X01126100Y01571780I00007750J00000000D01*
G37*
G36*
X01150715Y01547244D02*
G02X01150715Y01547244I00007750J00000000D01*
G37*
G36*
X01308195D02*
G02X01308195Y01547244I00007750J00000000D01*
G37*
G36*
X01332809Y01571780D02*
G02X01332809Y01571780I00007750J00000000D01*
G37*
G36*
X01539486D02*
G02X01539486Y01571780I00007750J00000000D01*
G37*
G36*
X01564100Y01547244D02*
G02X01564100Y01547244I00007750J00000000D01*
G37*
G36*
X00092652Y01571780D02*
G02X00092652Y01571780I00007750J00000000D01*
G37*
G36*
X00068037Y01547244D02*
G02X00068037Y01547244I00007750J00000000D01*
G37*
M02*
