*
%FSLAX26Y26*%
%MOIN*%
%ADD10C,0.010000*%
%IPPOS*%
%LN1o.gbx*%
%LPD*%
G75*
G54D10*
X01647638Y00031496D02*
X01642091Y00031004D01*
X01636718Y00029543D01*
X01631687Y00027158D01*
X01627154Y00023925D01*
X01623261Y00019944D01*
X01620129Y00015339D01*
X01617858Y00010256D01*
X01616518Y00004851D01*
X01616142Y00000000D01*
X00031496D01*
X00031004Y00005546D01*
X00029543Y00010919D01*
X00027158Y00015951D01*
X00023925Y00020484D01*
X00019944Y00024377D01*
X00015339Y00027508D01*
X00010256Y00029780D01*
X00004851Y00031120D01*
X00000000Y00031496D01*
Y01616142D01*
X00005546Y01616634D01*
X00010919Y01618095D01*
X00015951Y01620480D01*
X00020484Y01623713D01*
X00024377Y01627694D01*
X00027508Y01632299D01*
X00029780Y01637382D01*
X00031120Y01642787D01*
X00031496Y01647638D01*
X01616142D01*
X01616634Y01642091D01*
X01618095Y01636718D01*
X01620480Y01631687D01*
X01623713Y01627154D01*
X01627694Y01623261D01*
X01632299Y01620129D01*
X01637382Y01617858D01*
X01642787Y01616518D01*
X01647638Y01616142D01*
Y00031496D01*
X-00000000Y00031496D02*
Y01616142D01*
X00005546Y01616634D01*
X00010919Y01618096D01*
X00015951Y01620480D01*
X00020484Y01623713D01*
X00024377Y01627695D01*
X00027508Y01632299D01*
X00029779Y01637383D01*
X00031120Y01642787D01*
X00031496Y01647638D01*
X01616142D01*
X01616634Y01642092D01*
X01618095Y01636719D01*
X01620479Y01631687D01*
X01623713Y01627154D01*
X01627694Y01623261D01*
X01632298Y01620130D01*
X01637382Y01617859D01*
X01642787Y01616518D01*
X01647638Y01616142D01*
Y00031497D01*
X01642091Y00031004D01*
X01636718Y00029543D01*
X01631687Y00027159D01*
X01627153Y00023925D01*
X01623260Y00019944D01*
X01620129Y00015340D01*
X01617858Y00010256D01*
X01616517Y00004852D01*
X01616142Y00000000D01*
X00031496D01*
X00031004Y00005547D01*
X00029542Y00010920D01*
X00027158Y00015951D01*
X00023925Y00020485D01*
X00019943Y00024378D01*
X00015339Y00027509D01*
X00010255Y00029780D01*
X00004851Y00031120D01*
X-00000000Y00031496D01*
Y01726378D02*
X01647638D01*
Y-00078740D02*
X-00000000D01*
Y02041339D02*
Y01726378D01*
X01647638Y02041339D02*
Y01726378D01*
X-00000000Y-00078740D02*
Y-00393700D01*
X01647638D02*
Y-00078740D01*
Y-00393700D02*
X-00000000D01*
Y02041339D02*
X01647638D01*
X00096123Y01726378D02*
X00102331Y01725885D01*
X00108383Y01724420D01*
X00114129Y01722019D01*
X00119424Y01718743D01*
X00124136Y01714672D01*
X00128147Y01709909D01*
X00131358Y01704573D01*
X00133686Y01698798D01*
X00135076Y01692728D01*
X00135490Y01686515D01*
X00134920Y01680314D01*
X00133380Y01674281D01*
X00130907Y01668566D01*
X00127564Y01663312D01*
X00123435Y01658651D01*
X00118622Y01654700D01*
X00113246Y01651556D01*
X00107443Y01649300D01*
X00101356Y01647987D01*
X00096123Y01647638D01*
X00316123D02*
X00309916Y01648130D01*
X00303864Y01649595D01*
X00298118Y01651996D01*
X00292823Y01655273D01*
X00288111Y01659344D01*
X00284100Y01664107D01*
X00280889Y01669442D01*
X00278560Y01675217D01*
X00277171Y01681287D01*
X00276756Y01687501D01*
X00277327Y01693701D01*
X00278867Y01699735D01*
X00281340Y01705450D01*
X00284683Y01710704D01*
X00288812Y01715364D01*
X00293625Y01719316D01*
X00299000Y01722459D01*
X00304804Y01724715D01*
X00310891Y01726029D01*
X00316123Y01726378D01*
X00709612D02*
X00715820Y01725885D01*
X00721872Y01724420D01*
X00727617Y01722019D01*
X00732913Y01718743D01*
X00737625Y01714672D01*
X00741636Y01709909D01*
X00744846Y01704573D01*
X00747175Y01698798D01*
X00748564Y01692728D01*
X00748979Y01686515D01*
X00748409Y01680314D01*
X00746868Y01674281D01*
X00744396Y01668566D01*
X00741053Y01663312D01*
X00736923Y01658651D01*
X00732111Y01654700D01*
X00726735Y01651556D01*
X00720931Y01649300D01*
X00714844Y01647987D01*
X00709612Y01647638D01*
X00929612D02*
X00923405Y01648130D01*
X00917352Y01649595D01*
X00911607Y01651996D01*
X00906312Y01655273D01*
X00901600Y01659344D01*
X00897588Y01664107D01*
X00894378Y01669442D01*
X00892049Y01675217D01*
X00890660Y01681287D01*
X00890245Y01687501D01*
X00890815Y01693701D01*
X00892356Y01699735D01*
X00894829Y01705450D01*
X00898172Y01710704D01*
X00902301Y01715364D01*
X00907114Y01719316D01*
X00912489Y01722459D01*
X00918293Y01724715D01*
X00924380Y01726029D01*
X00929612Y01726378D01*
X01343332D02*
X01349539Y01725885D01*
X01355592Y01724420D01*
X01361337Y01722019D01*
X01366632Y01718743D01*
X01371344Y01714672D01*
X01375356Y01709909D01*
X01378566Y01704573D01*
X01380895Y01698798D01*
X01382284Y01692728D01*
X01382699Y01686515D01*
X01382129Y01680314D01*
X01380588Y01674281D01*
X01378115Y01668566D01*
X01374772Y01663312D01*
X01370643Y01658651D01*
X01365830Y01654700D01*
X01360455Y01651556D01*
X01354651Y01649300D01*
X01348564Y01647987D01*
X01343332Y01647638D01*
X01563332D02*
X01557124Y01648130D01*
X01551072Y01649595D01*
X01545327Y01651996D01*
X01540031Y01655273D01*
X01535319Y01659344D01*
X01531308Y01664107D01*
X01528098Y01669442D01*
X01525769Y01675217D01*
X01524380Y01681287D01*
X01523965Y01687501D01*
X01524535Y01693701D01*
X01526076Y01699735D01*
X01528548Y01705450D01*
X01531891Y01710704D01*
X01536021Y01715364D01*
X01540833Y01719316D01*
X01546209Y01722459D01*
X01552013Y01724715D01*
X01558100Y01726029D01*
X01563332Y01726378D01*
X00096123Y-00078740D02*
X00102331Y-00078248D01*
X00108383Y-00076782D01*
X00114129Y-00074381D01*
X00119424Y-00071105D01*
X00124136Y-00067034D01*
X00128147Y-00062271D01*
X00131358Y-00056936D01*
X00133686Y-00051160D01*
X00135076Y-00045090D01*
X00135490Y-00038877D01*
X00134920Y-00032676D01*
X00133380Y-00026643D01*
X00130907Y-00020928D01*
X00127564Y-00015674D01*
X00123435Y-00011013D01*
X00118622Y-00007062D01*
X00113246Y-00003919D01*
X00107443Y-00001662D01*
X00101356Y-00000349D01*
X00096123Y00000000D01*
X00316123D02*
X00309916Y-00000492D01*
X00303864Y-00001957D01*
X00298118Y-00004358D01*
X00292823Y-00007635D01*
X00288111Y-00011706D01*
X00284100Y-00016469D01*
X00280889Y-00021804D01*
X00278560Y-00027580D01*
X00277171Y-00033650D01*
X00276756Y-00039863D01*
X00277327Y-00046064D01*
X00278867Y-00052097D01*
X00281340Y-00057812D01*
X00284683Y-00063066D01*
X00288812Y-00067727D01*
X00293625Y-00071678D01*
X00299000Y-00074821D01*
X00304804Y-00077078D01*
X00310891Y-00078391D01*
X00316123Y-00078740D01*
X00709612D02*
X00715820Y-00078248D01*
X00721872Y-00076782D01*
X00727617Y-00074381D01*
X00732913Y-00071105D01*
X00737625Y-00067034D01*
X00741636Y-00062271D01*
X00744846Y-00056936D01*
X00747175Y-00051160D01*
X00748564Y-00045090D01*
X00748979Y-00038877D01*
X00748409Y-00032676D01*
X00746868Y-00026643D01*
X00744396Y-00020928D01*
X00741053Y-00015674D01*
X00736923Y-00011013D01*
X00732111Y-00007062D01*
X00726735Y-00003919D01*
X00720931Y-00001662D01*
X00714844Y-00000349D01*
X00709612Y00000000D01*
X00929612D02*
X00923405Y-00000492D01*
X00917352Y-00001957D01*
X00911607Y-00004358D01*
X00906312Y-00007635D01*
X00901600Y-00011706D01*
X00897588Y-00016469D01*
X00894378Y-00021804D01*
X00892049Y-00027580D01*
X00890660Y-00033650D01*
X00890245Y-00039863D01*
X00890815Y-00046064D01*
X00892356Y-00052097D01*
X00894829Y-00057812D01*
X00898172Y-00063066D01*
X00902301Y-00067727D01*
X00907114Y-00071678D01*
X00912489Y-00074821D01*
X00918293Y-00077078D01*
X00924380Y-00078391D01*
X00929612Y-00078740D01*
X01343332D02*
X01349539Y-00078248D01*
X01355592Y-00076782D01*
X01361337Y-00074381D01*
X01366632Y-00071105D01*
X01371344Y-00067034D01*
X01375356Y-00062271D01*
X01378566Y-00056936D01*
X01380895Y-00051160D01*
X01382284Y-00045090D01*
X01382699Y-00038877D01*
X01382129Y-00032676D01*
X01380588Y-00026643D01*
X01378115Y-00020928D01*
X01374772Y-00015674D01*
X01370643Y-00011013D01*
X01365830Y-00007062D01*
X01360455Y-00003919D01*
X01354651Y-00001662D01*
X01348564Y-00000349D01*
X01343332Y00000000D01*
X01563332D02*
X01557124Y-00000492D01*
X01551072Y-00001957D01*
X01545327Y-00004358D01*
X01540031Y-00007635D01*
X01535319Y-00011706D01*
X01531308Y-00016469D01*
X01528098Y-00021804D01*
X01525769Y-00027580D01*
X01524380Y-00033650D01*
X01523965Y-00039863D01*
X01524535Y-00046064D01*
X01526076Y-00052097D01*
X01528548Y-00057812D01*
X01531891Y-00063066D01*
X01536021Y-00067727D01*
X01540833Y-00071678D01*
X01546209Y-00074821D01*
X01552013Y-00077078D01*
X01558100Y-00078391D01*
X01563332Y-00078740D01*
M02*
