*
%FSLAX26Y26*%
%MOIN*%
%ADD10C,0.009409*%
%ADD11R,0.027559X0.027559*%
%ADD12R,0.029134X0.029134*%
%ADD13R,0.027165X0.027165*%
%ADD14C,0.053000*%
%IPPOS*%
%LN1p.gbx*%
%LPD*%
G75*
G36*
X00831689Y00487205D02*
X00815949D01*
Y00524902D01*
X00831689D01*
Y00487205D01*
G37*
G36*
X00882866Y00489213D02*
X00885661Y00487118D01*
X00890937Y00482539D01*
X00895878Y00477598D01*
X00900457Y00472323D01*
X00902551Y00469528D01*
Y00351417D01*
X00900457Y00348622D01*
X00895878Y00343346D01*
X00890937Y00338406D01*
X00885661Y00333827D01*
X00882866Y00331732D01*
X00764756D01*
X00761961Y00333827D01*
X00756685Y00338406D01*
X00751744Y00343346D01*
X00747165Y00348622D01*
X00745071Y00351417D01*
Y00469528D01*
X00747165Y00472323D01*
X00751744Y00477598D01*
X00756685Y00482539D01*
X00761961Y00487118D01*
X00764756Y00489213D01*
X00796252D01*
Y00410433D01*
X00796323Y00408433D01*
X00796906Y00404472D01*
X00798051Y00400638D01*
X00799740Y00397012D01*
X00800780Y00395299D01*
X00802823Y00392571D01*
X00807835Y00387976D01*
X00813819Y00384748D01*
X00820413Y00383087D01*
X00827213D01*
X00833803Y00384748D01*
X00839787Y00387976D01*
X00844799Y00392575D01*
X00846843Y00395299D01*
X00847882Y00397012D01*
X00849571Y00400638D01*
X00850717Y00404472D01*
X00851299Y00408433D01*
X00851370Y00410433D01*
Y00489213D01*
X00882866D01*
G37*
G36*
X00882882Y01315906D02*
X00885677Y01313811D01*
X00890953Y01309232D01*
X00895894Y01304291D01*
X00900472Y01299016D01*
X00902567Y01296220D01*
Y01178110D01*
X00900472Y01175315D01*
X00895894Y01170039D01*
X00890953Y01165098D01*
X00885677Y01160520D01*
X00882882Y01158425D01*
X00851386D01*
Y01237205D01*
X00851315Y01239205D01*
X00850732Y01243165D01*
X00849587Y01247000D01*
X00847898Y01250626D01*
X00846858Y01252339D01*
X00844815Y01255067D01*
X00839803Y01259661D01*
X00833819Y01262890D01*
X00827224Y01264555D01*
X00820425Y01264551D01*
X00813835Y01262890D01*
X00807850Y01259661D01*
X00802839Y01255063D01*
X00800795Y01252339D01*
X00799756Y01250626D01*
X00798067Y01247000D01*
X00796921Y01243165D01*
X00796339Y01239205D01*
X00796268Y01237205D01*
Y01158425D01*
X00764772D01*
X00761976Y01160520D01*
X00756701Y01165098D01*
X00751760Y01170039D01*
X00747181Y01175315D01*
X00745087Y01178110D01*
Y01296220D01*
X00747181Y01299016D01*
X00751760Y01304291D01*
X00756701Y01309232D01*
X00761976Y01313811D01*
X00764772Y01315906D01*
X00882882D01*
G37*
G36*
X00831689Y01122736D02*
X00815949D01*
Y01160433D01*
X00831689D01*
Y01122736D01*
G37*
G54D10*
X01522638Y01514764D03*
X01506890D03*
X01491142D03*
X01475394D03*
X01459646D03*
X01443898D03*
X01428150D03*
X01412402D03*
X01396654D03*
X01380906D03*
X01365157D03*
X01538386Y01499016D03*
X01365157D03*
X01380906D03*
X01396654D03*
X01412402D03*
X01428150D03*
X01459646D03*
X01475394D03*
X01491142D03*
X01506890D03*
X01349409D03*
X01522638D03*
Y01483268D03*
X01349409D03*
X01506890D03*
X01475394D03*
X01459646D03*
X01428150D03*
X01412402D03*
X01380906D03*
X01365157D03*
X01538386D03*
X01522638Y01467520D03*
X01349409D03*
X01506890D03*
X01491142D03*
X01475394D03*
X01459646D03*
X01428150D03*
X01412402D03*
X01396654D03*
X01380906D03*
X01365157D03*
X01538386D03*
X01522638Y01451772D03*
X01349409D03*
X01506890D03*
X01491142D03*
X01475394D03*
X01412402D03*
X01396654D03*
X01380906D03*
X01365157D03*
X01538386D03*
X01522638Y01436024D03*
X01349409D03*
X01506890D03*
X01475394D03*
X01412402D03*
X01380906D03*
X01365157D03*
X01538386D03*
X01522638Y01420276D03*
X01349409D03*
X01506890D03*
X01491142D03*
X01475394D03*
X01459646D03*
X01428150D03*
X01412402D03*
X01396654D03*
X01380906D03*
X01365157D03*
X01538386D03*
X01522638Y01404528D03*
X01349409D03*
X01506890D03*
X01475394D03*
X01459646D03*
X01428150D03*
X01412402D03*
X01380906D03*
X01365157D03*
X01538386D03*
X01522638Y01388780D03*
X01349409D03*
X01506890D03*
X01491142D03*
X01475394D03*
X01459646D03*
X01428150D03*
X01412402D03*
X01396654D03*
X01380906D03*
X01365157D03*
X01538386D03*
X01522638Y01373031D03*
X01506890D03*
X01491142D03*
X01475394D03*
X01459646D03*
X01443898D03*
X01428150D03*
X01412402D03*
X01396654D03*
X01380906D03*
X01365157D03*
X01396654Y01436024D03*
X01109252Y01514764D03*
X01093504D03*
X01077756D03*
X01062008D03*
X01046260D03*
X01030512D03*
X01014764D03*
X00999016D03*
X00983268D03*
X00967520D03*
X00951772D03*
X01125000Y01499016D03*
X00951772D03*
X00967520D03*
X00983268D03*
X00999016D03*
X01014764D03*
X01046260D03*
X01062008D03*
X01077756D03*
X01093504D03*
X00936024D03*
X01109252D03*
Y01483268D03*
X00936024D03*
X01093504D03*
X01062008D03*
X01046260D03*
X01014764D03*
X00999016D03*
X00967520D03*
X00951772D03*
X01125000D03*
X01109252Y01467520D03*
X00936024D03*
X01093504D03*
X01077756D03*
X01062008D03*
X01046260D03*
X01014764D03*
X00999016D03*
X00983268D03*
X00967520D03*
X00951772D03*
X01125000D03*
X01109252Y01451772D03*
X00936024D03*
X01093504D03*
X01077756D03*
X01062008D03*
X00999016D03*
X00983268D03*
X00967520D03*
X00951772D03*
X01125000D03*
X01109252Y01436024D03*
X00936024D03*
X01093504D03*
X01062008D03*
X00999016D03*
X00967520D03*
X00951772D03*
X01125000D03*
X01109252Y01420276D03*
X00936024D03*
X01093504D03*
X01077756D03*
X01062008D03*
X01046260D03*
X01014764D03*
X00999016D03*
X00983268D03*
X00967520D03*
X00951772D03*
X01125000D03*
X01109252Y01404528D03*
X00936024D03*
X01093504D03*
X01062008D03*
X01046260D03*
X01014764D03*
X00999016D03*
X00967520D03*
X00951772D03*
X01125000D03*
X01109252Y01388780D03*
X00936024D03*
X01093504D03*
X01077756D03*
X01062008D03*
X01046260D03*
X01014764D03*
X00999016D03*
X00983268D03*
X00967520D03*
X00951772D03*
X01125000D03*
X01109252Y01373031D03*
X01093504D03*
X01077756D03*
X01062008D03*
X01046260D03*
X01030512D03*
X01014764D03*
X00999016D03*
X00983268D03*
X00967520D03*
X00951772D03*
X00983268Y01436024D03*
X00695866Y01514764D03*
X00680118D03*
X00664370D03*
X00648622D03*
X00632874D03*
X00617126D03*
X00601378D03*
X00585630D03*
X00569882D03*
X00554134D03*
X00538386D03*
X00711614Y01499016D03*
X00538386D03*
X00554134D03*
X00569882D03*
X00585630D03*
X00601378D03*
X00632874D03*
X00648622D03*
X00664370D03*
X00680118D03*
X00522638D03*
X00695866D03*
Y01483268D03*
X00522638D03*
X00680118D03*
X00648622D03*
X00632874D03*
X00601378D03*
X00585630D03*
X00554134D03*
X00538386D03*
X00711614D03*
X00695866Y01467520D03*
X00522638D03*
X00680118D03*
X00664370D03*
X00648622D03*
X00632874D03*
X00601378D03*
X00585630D03*
X00569882D03*
X00554134D03*
X00538386D03*
X00711614D03*
X00695866Y01451772D03*
X00522638D03*
X00680118D03*
X00664370D03*
X00648622D03*
X00585630D03*
X00569882D03*
X00554134D03*
X00538386D03*
X00711614D03*
X00695866Y01436024D03*
X00522638D03*
X00680118D03*
X00648622D03*
X00585630D03*
X00554134D03*
X00538386D03*
X00711614D03*
X00695866Y01420276D03*
X00522638D03*
X00680118D03*
X00664370D03*
X00648622D03*
X00632874D03*
X00601378D03*
X00585630D03*
X00569882D03*
X00554134D03*
X00538386D03*
X00711614D03*
X00695866Y01404528D03*
X00522638D03*
X00680118D03*
X00648622D03*
X00632874D03*
X00601378D03*
X00585630D03*
X00554134D03*
X00538386D03*
X00711614D03*
X00695866Y01388780D03*
X00522638D03*
X00680118D03*
X00664370D03*
X00648622D03*
X00632874D03*
X00601378D03*
X00585630D03*
X00569882D03*
X00554134D03*
X00538386D03*
X00711614D03*
X00695866Y01373031D03*
X00680118D03*
X00664370D03*
X00648622D03*
X00632874D03*
X00617126D03*
X00601378D03*
X00585630D03*
X00569882D03*
X00554134D03*
X00538386D03*
X00569882Y01436024D03*
X00282480Y01514764D03*
X00266732D03*
X00250984D03*
X00235236D03*
X00219488D03*
X00203740D03*
X00187992D03*
X00172244D03*
X00156496D03*
X00140748D03*
X00125000D03*
X00298228Y01499016D03*
X00125000D03*
X00140748D03*
X00156496D03*
X00172244D03*
X00187992D03*
X00219488D03*
X00235236D03*
X00250984D03*
X00266732D03*
X00109252D03*
X00282480D03*
Y01483268D03*
X00109252D03*
X00266732D03*
X00235236D03*
X00219488D03*
X00187992D03*
X00172244D03*
X00140748D03*
X00125000D03*
X00298228D03*
X00282480Y01467520D03*
X00109252D03*
X00266732D03*
X00250984D03*
X00235236D03*
X00219488D03*
X00187992D03*
X00172244D03*
X00156496D03*
X00140748D03*
X00125000D03*
X00298228D03*
X00282480Y01451772D03*
X00109252D03*
X00266732D03*
X00250984D03*
X00235236D03*
X00172244D03*
X00156496D03*
X00140748D03*
X00125000D03*
X00298228D03*
X00282480Y01436024D03*
X00109252D03*
X00266732D03*
X00235236D03*
X00172244D03*
X00140748D03*
X00125000D03*
X00298228D03*
X00282480Y01420276D03*
X00109252D03*
X00266732D03*
X00250984D03*
X00235236D03*
X00219488D03*
X00187992D03*
X00172244D03*
X00156496D03*
X00140748D03*
X00125000D03*
X00298228D03*
X00282480Y01404528D03*
X00109252D03*
X00266732D03*
X00235236D03*
X00219488D03*
X00187992D03*
X00172244D03*
X00140748D03*
X00125000D03*
X00298228D03*
X00282480Y01388780D03*
X00109252D03*
X00266732D03*
X00250984D03*
X00235236D03*
X00219488D03*
X00187992D03*
X00172244D03*
X00156496D03*
X00140748D03*
X00125000D03*
X00298228D03*
X00282480Y01373031D03*
X00266732D03*
X00250984D03*
X00235236D03*
X00219488D03*
X00203740D03*
X00187992D03*
X00172244D03*
X00156496D03*
X00140748D03*
X00125000D03*
X00156496Y01436024D03*
X00680118Y00991142D03*
X00554134D03*
X00680118Y01006890D03*
X00664370D03*
X00569882D03*
X00554134D03*
X00680118Y01022638D03*
X00664370D03*
X00569882D03*
X00554134D03*
X00664370Y01038386D03*
X00680118D03*
X00554134D03*
X00680118Y01054134D03*
X00664370D03*
X00569882D03*
X00554134D03*
X00680118Y01069882D03*
X00554134D03*
X00538386Y00959646D03*
X00554134D03*
X00569882D03*
X00585630D03*
X00601378D03*
X00617126D03*
X00632874D03*
X00648622D03*
X00664370D03*
X00680118D03*
X00695866D03*
X00522638Y00975394D03*
X00695866D03*
X00680118D03*
X00664370D03*
X00648622D03*
X00632874D03*
X00601378D03*
X00585630D03*
X00569882D03*
X00554134D03*
X00711614D03*
X00538386D03*
Y00991142D03*
X00711614D03*
X00585630D03*
X00601378D03*
X00632874D03*
X00648622D03*
X00695866D03*
X00522638D03*
X00538386Y01006890D03*
X00711614D03*
X00585630D03*
X00601378D03*
X00632874D03*
X00648622D03*
X00695866D03*
X00522638D03*
X00538386Y01022638D03*
X00711614D03*
X00585630D03*
X00648622D03*
X00695866D03*
X00522638D03*
X00538386Y01038386D03*
X00711614D03*
X00585630D03*
X00648622D03*
X00695866D03*
X00522638D03*
X00538386Y01054134D03*
X00711614D03*
X00585630D03*
X00601378D03*
X00632874D03*
X00648622D03*
X00695866D03*
X00522638D03*
X00538386Y01069882D03*
X00711614D03*
X00585630D03*
X00601378D03*
X00632874D03*
X00648622D03*
X00695866D03*
X00522638D03*
X00538386Y01085630D03*
X00711614D03*
X00554134D03*
X00569882D03*
X00585630D03*
X00601378D03*
X00632874D03*
X00648622D03*
X00664370D03*
X00680118D03*
X00695866D03*
X00522638D03*
X00538386Y01101378D03*
X00554134D03*
X00569882D03*
X00585630D03*
X00601378D03*
X00617126D03*
X00632874D03*
X00648622D03*
X00664370D03*
X00680118D03*
X00695866D03*
X00282480Y00274606D03*
X00266732D03*
X00250984D03*
X00235236D03*
X00219488D03*
X00203740D03*
X00187992D03*
X00172244D03*
X00156496D03*
X00140748D03*
X00125000D03*
X00109252Y00258858D03*
X00282480D03*
X00266732D03*
X00250984D03*
X00235236D03*
X00219488D03*
X00187992D03*
X00172244D03*
X00156496D03*
X00140748D03*
X00298228D03*
X00125000D03*
X00109252Y00243110D03*
X00282480D03*
X00235236D03*
X00219488D03*
X00187992D03*
X00172244D03*
X00298228D03*
X00125000D03*
X00109252Y00227362D03*
X00282480D03*
X00235236D03*
X00219488D03*
X00187992D03*
X00172244D03*
X00298228D03*
X00125000D03*
X00109252Y00211614D03*
X00282480D03*
X00235236D03*
X00172244D03*
X00298228D03*
X00125000D03*
X00109252Y00195866D03*
X00282480D03*
X00235236D03*
X00172244D03*
X00298228D03*
X00125000D03*
X00109252Y00180118D03*
X00282480D03*
X00235236D03*
X00219488D03*
X00187992D03*
X00172244D03*
X00298228D03*
X00125000D03*
X00109252Y00164370D03*
X00282480D03*
X00235236D03*
X00219488D03*
X00187992D03*
X00172244D03*
X00298228D03*
X00125000D03*
Y00148622D03*
X00298228D03*
X00140748D03*
X00156496D03*
X00172244D03*
X00187992D03*
X00219488D03*
X00235236D03*
X00250984D03*
X00266732D03*
X00282480D03*
X00109252D03*
X00282480Y00132874D03*
X00266732D03*
X00250984D03*
X00235236D03*
X00219488D03*
X00203740D03*
X00187992D03*
X00172244D03*
X00156496D03*
X00140748D03*
X00125000D03*
X00140748Y00243110D03*
X00266732D03*
X00140748Y00227362D03*
X00156496D03*
X00250984D03*
X00266732D03*
X00140748Y00211614D03*
X00266732D03*
X00250984D03*
X00140748Y00195866D03*
X00156496D03*
X00250984D03*
X00266732D03*
X00140748Y00180118D03*
X00156496D03*
X00250984D03*
X00266732D03*
X00140748Y00164370D03*
X00266732D03*
X00967520Y00656496D03*
X01093504D03*
X00967520Y00640748D03*
X00983268D03*
X01077756D03*
X01093504D03*
X00967520Y00625000D03*
X00983268D03*
X01077756D03*
X01093504D03*
X00983268Y00609252D03*
X00967520D03*
X01093504D03*
X00967520Y00593504D03*
X00983268D03*
X01077756D03*
X01093504D03*
X00967520Y00577756D03*
X01093504D03*
X01109252Y00687992D03*
X01093504D03*
X01077756D03*
X01062008D03*
X01046260D03*
X01030512D03*
X01014764D03*
X00999016D03*
X00983268D03*
X00967520D03*
X00951772D03*
X01125000Y00672244D03*
X00951772D03*
X00967520D03*
X00983268D03*
X00999016D03*
X01014764D03*
X01046260D03*
X01062008D03*
X01077756D03*
X01093504D03*
X00936024D03*
X01109252D03*
Y00656496D03*
X00936024D03*
X01062008D03*
X01046260D03*
X01014764D03*
X00999016D03*
X00951772D03*
X01125000D03*
X01109252Y00640748D03*
X00936024D03*
X01062008D03*
X01046260D03*
X01014764D03*
X00999016D03*
X00951772D03*
X01125000D03*
X01109252Y00625000D03*
X00936024D03*
X01062008D03*
X00999016D03*
X00951772D03*
X01125000D03*
X01109252Y00609252D03*
X00936024D03*
X01062008D03*
X00999016D03*
X00951772D03*
X01125000D03*
X01109252Y00593504D03*
X00936024D03*
X01062008D03*
X01046260D03*
X01014764D03*
X00999016D03*
X00951772D03*
X01125000D03*
X01109252Y00577756D03*
X00936024D03*
X01062008D03*
X01046260D03*
X01014764D03*
X00999016D03*
X00951772D03*
X01125000D03*
X01109252Y00562008D03*
X00936024D03*
X01093504D03*
X01077756D03*
X01062008D03*
X01046260D03*
X01014764D03*
X00999016D03*
X00983268D03*
X00967520D03*
X00951772D03*
X01125000D03*
X01109252Y00546260D03*
X01093504D03*
X01077756D03*
X01062008D03*
X01046260D03*
X01030512D03*
X01014764D03*
X00999016D03*
X00983268D03*
X00967520D03*
X00951772D03*
X00554134Y00656496D03*
X00680118D03*
X00554134Y00640748D03*
X00569882D03*
X00664370D03*
X00680118D03*
X00554134Y00625000D03*
X00569882D03*
X00664370D03*
X00680118D03*
X00569882Y00609252D03*
X00554134D03*
X00680118D03*
X00554134Y00593504D03*
X00569882D03*
X00664370D03*
X00680118D03*
X00554134Y00577756D03*
X00680118D03*
X00695866Y00687992D03*
X00680118D03*
X00664370D03*
X00648622D03*
X00632874D03*
X00617126D03*
X00601378D03*
X00585630D03*
X00569882D03*
X00554134D03*
X00538386D03*
X00711614Y00672244D03*
X00538386D03*
X00554134D03*
X00569882D03*
X00585630D03*
X00601378D03*
X00632874D03*
X00648622D03*
X00664370D03*
X00680118D03*
X00522638D03*
X00695866D03*
Y00656496D03*
X00522638D03*
X00648622D03*
X00632874D03*
X00601378D03*
X00585630D03*
X00538386D03*
X00711614D03*
X00695866Y00640748D03*
X00522638D03*
X00648622D03*
X00632874D03*
X00601378D03*
X00585630D03*
X00538386D03*
X00711614D03*
X00695866Y00625000D03*
X00522638D03*
X00648622D03*
X00585630D03*
X00538386D03*
X00711614D03*
X00695866Y00609252D03*
X00522638D03*
X00648622D03*
X00585630D03*
X00538386D03*
X00711614D03*
X00695866Y00593504D03*
X00522638D03*
X00648622D03*
X00632874D03*
X00601378D03*
X00585630D03*
X00538386D03*
X00711614D03*
X00695866Y00577756D03*
X00522638D03*
X00648622D03*
X00632874D03*
X00601378D03*
X00585630D03*
X00538386D03*
X00711614D03*
X00695866Y00562008D03*
X00522638D03*
X00680118D03*
X00664370D03*
X00648622D03*
X00632874D03*
X00601378D03*
X00585630D03*
X00569882D03*
X00554134D03*
X00538386D03*
X00711614D03*
X00695866Y00546260D03*
X00680118D03*
X00664370D03*
X00648622D03*
X00632874D03*
X00617126D03*
X00601378D03*
X00585630D03*
X00569882D03*
X00554134D03*
X00538386D03*
X00695866Y00274606D03*
X00680118D03*
X00664370D03*
X00648622D03*
X00632874D03*
X00617126D03*
X00601378D03*
X00585630D03*
X00569882D03*
X00554134D03*
X00538386D03*
X00522638Y00258858D03*
X00695866D03*
X00680118D03*
X00664370D03*
X00648622D03*
X00632874D03*
X00601378D03*
X00585630D03*
X00569882D03*
X00554134D03*
X00711614D03*
X00538386D03*
X00522638Y00243110D03*
X00695866D03*
X00648622D03*
X00632874D03*
X00601378D03*
X00585630D03*
X00711614D03*
X00538386D03*
X00522638Y00227362D03*
X00695866D03*
X00648622D03*
X00632874D03*
X00601378D03*
X00585630D03*
X00711614D03*
X00538386D03*
X00522638Y00211614D03*
X00695866D03*
X00648622D03*
X00585630D03*
X00711614D03*
X00538386D03*
X00522638Y00195866D03*
X00695866D03*
X00648622D03*
X00585630D03*
X00711614D03*
X00538386D03*
X00522638Y00180118D03*
X00695866D03*
X00648622D03*
X00632874D03*
X00601378D03*
X00585630D03*
X00711614D03*
X00538386D03*
X00522638Y00164370D03*
X00695866D03*
X00648622D03*
X00632874D03*
X00601378D03*
X00585630D03*
X00711614D03*
X00538386D03*
Y00148622D03*
X00711614D03*
X00554134D03*
X00569882D03*
X00585630D03*
X00601378D03*
X00632874D03*
X00648622D03*
X00664370D03*
X00680118D03*
X00695866D03*
X00522638D03*
X00695866Y00132874D03*
X00680118D03*
X00664370D03*
X00648622D03*
X00632874D03*
X00617126D03*
X00601378D03*
X00585630D03*
X00569882D03*
X00554134D03*
X00538386D03*
X00554134Y00243110D03*
X00680118D03*
X00554134Y00227362D03*
X00569882D03*
X00664370D03*
X00680118D03*
X00554134Y00211614D03*
X00680118D03*
X00664370D03*
X00554134Y00195866D03*
X00569882D03*
X00664370D03*
X00680118D03*
X00554134Y00180118D03*
X00569882D03*
X00664370D03*
X00680118D03*
X00554134Y00164370D03*
X00680118D03*
X01109252Y00274606D03*
X01093504D03*
X01077756D03*
X01062008D03*
X01046260D03*
X01030512D03*
X01014764D03*
X00999016D03*
X00983268D03*
X00967520D03*
X00951772D03*
X00936024Y00258858D03*
X01109252D03*
X01093504D03*
X01077756D03*
X01062008D03*
X01046260D03*
X01014764D03*
X00999016D03*
X00983268D03*
X00967520D03*
X01125000D03*
X00951772D03*
X00936024Y00243110D03*
X01109252D03*
X01062008D03*
X01046260D03*
X01014764D03*
X00999016D03*
X01125000D03*
X00951772D03*
X00936024Y00227362D03*
X01109252D03*
X01062008D03*
X01046260D03*
X01014764D03*
X00999016D03*
X01125000D03*
X00951772D03*
X00936024Y00211614D03*
X01109252D03*
X01062008D03*
X00999016D03*
X01125000D03*
X00951772D03*
X00936024Y00195866D03*
X01109252D03*
X01062008D03*
X00999016D03*
X01125000D03*
X00951772D03*
X00936024Y00180118D03*
X01109252D03*
X01062008D03*
X01046260D03*
X01014764D03*
X00999016D03*
X01125000D03*
X00951772D03*
X00936024Y00164370D03*
X01109252D03*
X01062008D03*
X01046260D03*
X01014764D03*
X00999016D03*
X01125000D03*
X00951772D03*
Y00148622D03*
X01125000D03*
X00967520D03*
X00983268D03*
X00999016D03*
X01014764D03*
X01046260D03*
X01062008D03*
X01077756D03*
X01093504D03*
X01109252D03*
X00936024D03*
X01109252Y00132874D03*
X01093504D03*
X01077756D03*
X01062008D03*
X01046260D03*
X01030512D03*
X01014764D03*
X00999016D03*
X00983268D03*
X00967520D03*
X00951772D03*
X00967520Y00243110D03*
X01093504D03*
X00967520Y00227362D03*
X00983268D03*
X01077756D03*
X01093504D03*
X00967520Y00211614D03*
X01093504D03*
X01077756D03*
X00967520Y00195866D03*
X00983268D03*
X01077756D03*
X01093504D03*
X00967520Y00180118D03*
X00983268D03*
X01077756D03*
X01093504D03*
X00967520Y00164370D03*
X01093504D03*
X01522638Y00274606D03*
X01506890D03*
X01491142D03*
X01475394D03*
X01459646D03*
X01443898D03*
X01428150D03*
X01412402D03*
X01396654D03*
X01380906D03*
X01365157D03*
X01349409Y00258858D03*
X01522638D03*
X01506890D03*
X01491142D03*
X01475394D03*
X01459646D03*
X01428150D03*
X01412402D03*
X01396654D03*
X01380906D03*
X01538386D03*
X01365157D03*
X01349409Y00243110D03*
X01522638D03*
X01475394D03*
X01459646D03*
X01428150D03*
X01412402D03*
X01538386D03*
X01365157D03*
X01349409Y00227362D03*
X01522638D03*
X01475394D03*
X01459646D03*
X01428150D03*
X01412402D03*
X01538386D03*
X01365157D03*
X01349409Y00211614D03*
X01522638D03*
X01475394D03*
X01412402D03*
X01538386D03*
X01365157D03*
X01349409Y00195866D03*
X01522638D03*
X01475394D03*
X01412402D03*
X01538386D03*
X01365157D03*
X01349409Y00180118D03*
X01522638D03*
X01475394D03*
X01459646D03*
X01428150D03*
X01412402D03*
X01538386D03*
X01365157D03*
X01349409Y00164370D03*
X01522638D03*
X01475394D03*
X01459646D03*
X01428150D03*
X01412402D03*
X01538386D03*
X01365157D03*
Y00148622D03*
X01538386D03*
X01380906D03*
X01396654D03*
X01412402D03*
X01428150D03*
X01459646D03*
X01475394D03*
X01491142D03*
X01506890D03*
X01522638D03*
X01349409D03*
X01522638Y00132874D03*
X01506890D03*
X01491142D03*
X01475394D03*
X01459646D03*
X01443898D03*
X01428150D03*
X01412402D03*
X01396654D03*
X01380906D03*
X01365157D03*
X01380906Y00243110D03*
X01506890D03*
X01380906Y00227362D03*
X01396654D03*
X01491142D03*
X01506890D03*
X01380906Y00211614D03*
X01506890D03*
X01491142D03*
X01380906Y00195866D03*
X01396654D03*
X01491142D03*
X01506890D03*
X01380906Y00180118D03*
X01396654D03*
X01491142D03*
X01506890D03*
X01380906Y00164370D03*
X01506890D03*
X00125000Y00546260D03*
X00140748D03*
X00156496D03*
X00172244D03*
X00187992D03*
X00203740D03*
X00219488D03*
X00235236D03*
X00250984D03*
X00266732D03*
X00282480D03*
X00298228Y00562008D03*
X00125000D03*
X00140748D03*
X00156496D03*
X00172244D03*
X00187992D03*
X00219488D03*
X00235236D03*
X00250984D03*
X00266732D03*
X00109252D03*
X00282480D03*
X00298228Y00577756D03*
X00125000D03*
X00172244D03*
X00187992D03*
X00219488D03*
X00235236D03*
X00109252D03*
X00282480D03*
X00298228Y00593504D03*
X00125000D03*
X00172244D03*
X00187992D03*
X00219488D03*
X00235236D03*
X00109252D03*
X00282480D03*
X00298228Y00609252D03*
X00125000D03*
X00172244D03*
X00235236D03*
X00109252D03*
X00282480D03*
X00298228Y00625000D03*
X00125000D03*
X00172244D03*
X00235236D03*
X00109252D03*
X00282480D03*
X00298228Y00640748D03*
X00125000D03*
X00172244D03*
X00187992D03*
X00219488D03*
X00235236D03*
X00109252D03*
X00282480D03*
X00298228Y00656496D03*
X00125000D03*
X00172244D03*
X00187992D03*
X00219488D03*
X00235236D03*
X00109252D03*
X00282480D03*
Y00672244D03*
X00109252D03*
X00266732D03*
X00250984D03*
X00235236D03*
X00219488D03*
X00187992D03*
X00172244D03*
X00156496D03*
X00140748D03*
X00125000D03*
X00298228D03*
X00125000Y00687992D03*
X00140748D03*
X00156496D03*
X00172244D03*
X00187992D03*
X00203740D03*
X00219488D03*
X00235236D03*
X00250984D03*
X00266732D03*
X00282480D03*
X00266732Y00577756D03*
X00140748D03*
X00266732Y00593504D03*
X00250984D03*
X00156496D03*
X00140748D03*
X00266732Y00609252D03*
X00140748D03*
X00156496D03*
X00266732Y00625000D03*
X00250984D03*
X00156496D03*
X00140748D03*
X00266732Y00640748D03*
X00250984D03*
X00156496D03*
X00140748D03*
X00266732Y00656496D03*
X00140748D03*
X01365157Y00546260D03*
X01380906D03*
X01396654D03*
X01412402D03*
X01428150D03*
X01443898D03*
X01459646D03*
X01475394D03*
X01491142D03*
X01506890D03*
X01522638D03*
X01538386Y00562008D03*
X01365157D03*
X01380906D03*
X01396654D03*
X01412402D03*
X01428150D03*
X01459646D03*
X01475394D03*
X01491142D03*
X01506890D03*
X01349409D03*
X01522638D03*
X01538386Y00577756D03*
X01365157D03*
X01412402D03*
X01428150D03*
X01459646D03*
X01475394D03*
X01349409D03*
X01522638D03*
X01538386Y00593504D03*
X01365157D03*
X01412402D03*
X01428150D03*
X01459646D03*
X01475394D03*
X01349409D03*
X01522638D03*
X01538386Y00609252D03*
X01365157D03*
X01412402D03*
X01475394D03*
X01349409D03*
X01522638D03*
X01538386Y00625000D03*
X01365157D03*
X01412402D03*
X01475394D03*
X01349409D03*
X01522638D03*
X01538386Y00640748D03*
X01365157D03*
X01412402D03*
X01428150D03*
X01459646D03*
X01475394D03*
X01349409D03*
X01522638D03*
X01538386Y00656496D03*
X01365157D03*
X01412402D03*
X01428150D03*
X01459646D03*
X01475394D03*
X01349409D03*
X01522638D03*
Y00672244D03*
X01349409D03*
X01506890D03*
X01491142D03*
X01475394D03*
X01459646D03*
X01428150D03*
X01412402D03*
X01396654D03*
X01380906D03*
X01365157D03*
X01538386D03*
X01365157Y00687992D03*
X01380906D03*
X01396654D03*
X01412402D03*
X01428150D03*
X01443898D03*
X01459646D03*
X01475394D03*
X01491142D03*
X01506890D03*
X01522638D03*
X01506890Y00577756D03*
X01380906D03*
X01506890Y00593504D03*
X01491142D03*
X01396654D03*
X01380906D03*
X01506890Y00609252D03*
X01380906D03*
X01396654D03*
X01506890Y00625000D03*
X01491142D03*
X01396654D03*
X01380906D03*
X01506890Y00640748D03*
X01491142D03*
X01396654D03*
X01380906D03*
X01506890Y00656496D03*
X01380906D03*
X00282480Y01101378D03*
X00266732D03*
X00250984D03*
X00235236D03*
X00219488D03*
X00203740D03*
X00187992D03*
X00172244D03*
X00156496D03*
X00140748D03*
X00125000D03*
X00109252Y01085630D03*
X00282480D03*
X00266732D03*
X00250984D03*
X00235236D03*
X00219488D03*
X00187992D03*
X00172244D03*
X00156496D03*
X00140748D03*
X00298228D03*
X00125000D03*
X00109252Y01069882D03*
X00282480D03*
X00235236D03*
X00219488D03*
X00187992D03*
X00172244D03*
X00298228D03*
X00125000D03*
X00109252Y01054134D03*
X00282480D03*
X00235236D03*
X00219488D03*
X00187992D03*
X00172244D03*
X00298228D03*
X00125000D03*
X00109252Y01038386D03*
X00282480D03*
X00235236D03*
X00172244D03*
X00298228D03*
X00125000D03*
X00109252Y01022638D03*
X00282480D03*
X00235236D03*
X00172244D03*
X00298228D03*
X00125000D03*
X00109252Y01006890D03*
X00282480D03*
X00235236D03*
X00219488D03*
X00187992D03*
X00172244D03*
X00298228D03*
X00125000D03*
X00109252Y00991142D03*
X00282480D03*
X00235236D03*
X00219488D03*
X00187992D03*
X00172244D03*
X00298228D03*
X00125000D03*
Y00975394D03*
X00298228D03*
X00140748D03*
X00156496D03*
X00172244D03*
X00187992D03*
X00219488D03*
X00235236D03*
X00250984D03*
X00266732D03*
X00282480D03*
X00109252D03*
X00282480Y00959646D03*
X00266732D03*
X00250984D03*
X00235236D03*
X00219488D03*
X00203740D03*
X00187992D03*
X00172244D03*
X00156496D03*
X00140748D03*
X00125000D03*
X00140748Y01069882D03*
X00266732D03*
X00140748Y01054134D03*
X00156496D03*
X00250984D03*
X00266732D03*
X00140748Y01038386D03*
X00266732D03*
X00250984D03*
X00140748Y01022638D03*
X00156496D03*
X00250984D03*
X00266732D03*
X00140748Y01006890D03*
X00156496D03*
X00250984D03*
X00266732D03*
X00140748Y00991142D03*
X00266732D03*
X01109252Y01101378D03*
X01093504D03*
X01077756D03*
X01062008D03*
X01046260D03*
X01030512D03*
X01014764D03*
X00999016D03*
X00983268D03*
X00967520D03*
X00951772D03*
X00936024Y01085630D03*
X01109252D03*
X01093504D03*
X01077756D03*
X01062008D03*
X01046260D03*
X01014764D03*
X00999016D03*
X00983268D03*
X00967520D03*
X01125000D03*
X00951772D03*
X00936024Y01069882D03*
X01109252D03*
X01062008D03*
X01046260D03*
X01014764D03*
X00999016D03*
X01125000D03*
X00951772D03*
X00936024Y01054134D03*
X01109252D03*
X01062008D03*
X01046260D03*
X01014764D03*
X00999016D03*
X01125000D03*
X00951772D03*
X00936024Y01038386D03*
X01109252D03*
X01062008D03*
X00999016D03*
X01125000D03*
X00951772D03*
X00936024Y01022638D03*
X01109252D03*
X01062008D03*
X00999016D03*
X01125000D03*
X00951772D03*
X00936024Y01006890D03*
X01109252D03*
X01062008D03*
X01046260D03*
X01014764D03*
X00999016D03*
X01125000D03*
X00951772D03*
X00936024Y00991142D03*
X01109252D03*
X01062008D03*
X01046260D03*
X01014764D03*
X00999016D03*
X01125000D03*
X00951772D03*
Y00975394D03*
X01125000D03*
X00967520D03*
X00983268D03*
X00999016D03*
X01014764D03*
X01046260D03*
X01062008D03*
X01077756D03*
X01093504D03*
X01109252D03*
X00936024D03*
X01109252Y00959646D03*
X01093504D03*
X01077756D03*
X01062008D03*
X01046260D03*
X01030512D03*
X01014764D03*
X00999016D03*
X00983268D03*
X00967520D03*
X00951772D03*
X00967520Y01069882D03*
X01093504D03*
X00967520Y01054134D03*
X00983268D03*
X01077756D03*
X01093504D03*
X00967520Y01038386D03*
X01093504D03*
X01077756D03*
X00967520Y01022638D03*
X00983268D03*
X01077756D03*
X01093504D03*
X00967520Y01006890D03*
X00983268D03*
X01077756D03*
X01093504D03*
X00967520Y00991142D03*
X01093504D03*
X01522638Y01101378D03*
X01506890D03*
X01491142D03*
X01475394D03*
X01459646D03*
X01443898D03*
X01428150D03*
X01412402D03*
X01396654D03*
X01380906D03*
X01365157D03*
X01349409Y01085630D03*
X01522638D03*
X01506890D03*
X01491142D03*
X01475394D03*
X01459646D03*
X01428150D03*
X01412402D03*
X01396654D03*
X01380906D03*
X01538386D03*
X01365157D03*
X01349409Y01069882D03*
X01522638D03*
X01475394D03*
X01459646D03*
X01428150D03*
X01412402D03*
X01538386D03*
X01365157D03*
X01349409Y01054134D03*
X01522638D03*
X01475394D03*
X01459646D03*
X01428150D03*
X01412402D03*
X01538386D03*
X01365157D03*
X01349409Y01038386D03*
X01522638D03*
X01475394D03*
X01412402D03*
X01538386D03*
X01365157D03*
X01349409Y01022638D03*
X01522638D03*
X01475394D03*
X01412402D03*
X01538386D03*
X01365157D03*
X01349409Y01006890D03*
X01522638D03*
X01475394D03*
X01459646D03*
X01428150D03*
X01412402D03*
X01538386D03*
X01365157D03*
X01349409Y00991142D03*
X01522638D03*
X01475394D03*
X01459646D03*
X01428150D03*
X01412402D03*
X01538386D03*
X01365157D03*
Y00975394D03*
X01538386D03*
X01380906D03*
X01396654D03*
X01412402D03*
X01428150D03*
X01459646D03*
X01475394D03*
X01491142D03*
X01506890D03*
X01522638D03*
X01349409D03*
X01522638Y00959646D03*
X01506890D03*
X01491142D03*
X01475394D03*
X01459646D03*
X01443898D03*
X01428150D03*
X01412402D03*
X01396654D03*
X01380906D03*
X01365157D03*
X01380906Y01069882D03*
X01506890D03*
X01380906Y01054134D03*
X01396654D03*
X01491142D03*
X01506890D03*
X01380906Y01038386D03*
X01506890D03*
X01491142D03*
X01380906Y01022638D03*
X01396654D03*
X01491142D03*
X01506890D03*
X01380906Y01006890D03*
X01396654D03*
X01491142D03*
X01506890D03*
X01380906Y00991142D03*
X01506890D03*
G54D11*
X00331102Y00164173D02*
X00382283D01*
X00438583D02*
X00489764D01*
X00331102Y01464173D02*
X00382283D01*
X00438583D02*
X00489764D01*
X01265354Y01464055D02*
X01316535D01*
X01157874D02*
X01209055D01*
X01265354Y00164055D02*
X01316535D01*
X01157874D02*
X01209055D01*
X00744925Y00598819D02*
X00796106D01*
X00852406D02*
X00903587D01*
X00744925Y01048819D02*
X00796106D01*
X00852406D02*
X00903587D01*
G54D12*
X00327559Y00214173D02*
X00385827D01*
X00435039D02*
X00493307D01*
X00327559Y00264173D02*
X00385827D01*
X00435039D02*
X00493307D01*
X00327559Y00314173D02*
X00385827D01*
X00435039D02*
X00493307D01*
X00327559Y00364173D02*
X00385827D01*
X00435039D02*
X00493307D01*
X00327559Y00414173D02*
X00385827D01*
X00435039D02*
X00493307D01*
X00327559Y00464173D02*
X00385827D01*
X00435039D02*
X00493307D01*
X00327559Y00514173D02*
X00385827D01*
X00435039D02*
X00493307D01*
X00327559Y00564173D02*
X00385827D01*
X00435039D02*
X00493307D01*
X00327559Y00614173D02*
X00385827D01*
X00435039D02*
X00493307D01*
X00327559Y00664173D02*
X00385827D01*
X00435039D02*
X00493307D01*
X00327559Y00714173D02*
X00385827D01*
X00435039D02*
X00493307D01*
X00327559Y00764173D02*
X00385827D01*
X00435039D02*
X00493307D01*
X00327559Y00814173D02*
X00385827D01*
X00435039D02*
X00493307D01*
X00327559Y00864173D02*
X00385827D01*
X00435039D02*
X00493307D01*
X00327559Y00914173D02*
X00385827D01*
X00435039D02*
X00493307D01*
X00327559Y00964173D02*
X00385827D01*
X00435039D02*
X00493307D01*
X00327559Y01014173D02*
X00385827D01*
X00435039D02*
X00493307D01*
X00327559Y01064173D02*
X00385827D01*
X00435039D02*
X00493307D01*
X00327559Y01114173D02*
X00385827D01*
X00435039D02*
X00493307D01*
X00327559Y01164173D02*
X00385827D01*
X00435039D02*
X00493307D01*
X00327559Y01214173D02*
X00385827D01*
X00435039D02*
X00493307D01*
X00327559Y01264173D02*
X00385827D01*
X00435039D02*
X00493307D01*
X00327559Y01314173D02*
X00385827D01*
X00435039D02*
X00493307D01*
X00327559Y01364173D02*
X00385827D01*
X00435039D02*
X00493307D01*
X00327559Y01414173D02*
X00385827D01*
X00435039D02*
X00493307D01*
X01261811Y01414055D02*
X01320079D01*
X01154331D02*
X01212598D01*
X01261811Y01364055D02*
X01320079D01*
X01154331D02*
X01212598D01*
X01261811Y01314055D02*
X01320079D01*
X01154331D02*
X01212598D01*
X01261811Y01264055D02*
X01320079D01*
X01154331D02*
X01212598D01*
X01261811Y01214055D02*
X01320079D01*
X01154331D02*
X01212598D01*
X01261811Y01164055D02*
X01320079D01*
X01154331D02*
X01212598D01*
X01261811Y01114055D02*
X01320079D01*
X01154331D02*
X01212598D01*
X01261811Y01064055D02*
X01320079D01*
X01154331D02*
X01212598D01*
X01261811Y01014055D02*
X01320079D01*
X01154331D02*
X01212598D01*
X01261811Y00964055D02*
X01320079D01*
X01154331D02*
X01212598D01*
X01261811Y00914055D02*
X01320079D01*
X01154331D02*
X01212598D01*
X01261811Y00864055D02*
X01320079D01*
X01154331D02*
X01212598D01*
X01261811Y00814055D02*
X01320079D01*
X01154331D02*
X01212598D01*
X01261811Y00764055D02*
X01320079D01*
X01154331D02*
X01212598D01*
X01261811Y00714055D02*
X01320079D01*
X01154331D02*
X01212598D01*
X01261811Y00664055D02*
X01320079D01*
X01154331D02*
X01212598D01*
X01261811Y00614055D02*
X01320079D01*
X01154331D02*
X01212598D01*
X01261811Y00564055D02*
X01320079D01*
X01154331D02*
X01212598D01*
X01261811Y00514055D02*
X01320079D01*
X01154331D02*
X01212598D01*
X01261811Y00464055D02*
X01320079D01*
X01154331D02*
X01212598D01*
X01261811Y00414055D02*
X01320079D01*
X01154331D02*
X01212598D01*
X01261811Y00364055D02*
X01320079D01*
X01154331D02*
X01212598D01*
X01261811Y00314055D02*
X01320079D01*
X01154331D02*
X01212598D01*
X01261811Y00264055D02*
X01320079D01*
X01154331D02*
X01212598D01*
X01261811Y00214055D02*
X01320079D01*
X01154331D02*
X01212598D01*
X00745713Y00648819D02*
X00795319D01*
X00853193D02*
X00902799D01*
X00745713Y00698819D02*
X00795319D01*
X00853193D02*
X00902799D01*
X00745713Y00748819D02*
X00795319D01*
X00853193D02*
X00902799D01*
X00745713Y00798819D02*
X00795319D01*
X00853193D02*
X00902799D01*
X00745713Y00848819D02*
X00795319D01*
X00853193D02*
X00902799D01*
X00745713Y00898819D02*
X00795319D01*
X00853193D02*
X00902799D01*
X00745713Y00948819D02*
X00795319D01*
X00853193D02*
X00902799D01*
X00745713Y00998819D02*
X00795319D01*
X00853193D02*
X00902799D01*
G54D13*
X00158150Y01562165D02*
X00159331D01*
X00158150Y01598386D02*
X00159331D01*
X00203150Y01562165D02*
X00204331D01*
X00203150Y01598386D02*
X00204331D01*
X00248150Y01562165D02*
X00249331D01*
X00248150Y01598386D02*
X00249331D01*
X00158150Y01305945D02*
X00159331D01*
X00158150Y01269724D02*
X00159331D01*
X00203150Y01305945D02*
X00204331D01*
X00203150Y01269724D02*
X00204331D01*
X00248150Y01305945D02*
X00249331D01*
X00248150Y01269724D02*
X00249331D01*
X00571535Y01562165D02*
X00572717D01*
X00571535Y01598386D02*
X00572717D01*
X00616535Y01562165D02*
X00617717D01*
X00616535Y01598386D02*
X00617717D01*
X00661535Y01562165D02*
X00662717D01*
X00661535Y01598386D02*
X00662717D01*
X00571535Y01305945D02*
X00572717D01*
X00571535Y01269724D02*
X00572717D01*
X00616535Y01305945D02*
X00617717D01*
X00616535Y01269724D02*
X00617717D01*
X00661535Y01305945D02*
X00662717D01*
X00661535Y01269724D02*
X00662717D01*
X00984921Y01562165D02*
X00986102D01*
X00984921Y01598386D02*
X00986102D01*
X01029921Y01562165D02*
X01031102D01*
X01029921Y01598386D02*
X01031102D01*
X01074921Y01562165D02*
X01076102D01*
X01074921Y01598386D02*
X01076102D01*
X00984921Y01305945D02*
X00986102D01*
X00984921Y01269724D02*
X00986102D01*
X01029921Y01305945D02*
X01031102D01*
X01029921Y01269724D02*
X01031102D01*
X01074921Y01305945D02*
X01076102D01*
X01074921Y01269724D02*
X01076102D01*
X01398307Y01562165D02*
X01399488D01*
X01398307Y01598386D02*
X01399488D01*
X01443307Y01562165D02*
X01444488D01*
X01443307Y01598386D02*
X01444488D01*
X01488307Y01562165D02*
X01489488D01*
X01488307Y01598386D02*
X01489488D01*
X01398307Y01305945D02*
X01399488D01*
X01398307Y01269724D02*
X01399488D01*
X01443307Y01305945D02*
X01444488D01*
X01443307Y01269724D02*
X01444488D01*
X01488307Y01305945D02*
X01489488D01*
X01488307Y01269724D02*
X01489488D01*
X00158150Y01168465D02*
X00159331D01*
X00158150Y01204685D02*
X00159331D01*
X00203150Y01168465D02*
X00204331D01*
X00203150Y01204685D02*
X00204331D01*
X00248150Y01168465D02*
X00249331D01*
X00248150Y01204685D02*
X00249331D01*
X00203150Y00892559D02*
X00204331D01*
X00203150Y00856339D02*
X00204331D01*
X00248150Y00892559D02*
X00249331D01*
X00248150Y00856339D02*
X00249331D01*
X00571535Y01168465D02*
X00572717D01*
X00571535Y01204685D02*
X00572717D01*
X00616535Y01168465D02*
X00617717D01*
X00616535Y01204685D02*
X00617717D01*
X00661535Y01168465D02*
X00662717D01*
X00661535Y01204685D02*
X00662717D01*
X00571535Y00892559D02*
X00572717D01*
X00571535Y00856339D02*
X00572717D01*
X00616535Y00892559D02*
X00617717D01*
X00616535Y00856339D02*
X00617717D01*
X00661535Y00892559D02*
X00662717D01*
X00661535Y00856339D02*
X00662717D01*
X00984921Y01168465D02*
X00986102D01*
X00984921Y01204685D02*
X00986102D01*
X01029921Y01168465D02*
X01031102D01*
X01029921Y01204685D02*
X01031102D01*
X01074921Y01168465D02*
X01076102D01*
X01074921Y01204685D02*
X01076102D01*
X00984921Y00892559D02*
X00986102D01*
X00984921Y00856339D02*
X00986102D01*
X01029921Y00892559D02*
X01031102D01*
X01029921Y00856339D02*
X01031102D01*
X01074921Y00892559D02*
X01076102D01*
X01074921Y00856339D02*
X01076102D01*
X01398307Y01168465D02*
X01399488D01*
X01398307Y01204685D02*
X01399488D01*
X01443307Y01168465D02*
X01444488D01*
X01443307Y01204685D02*
X01444488D01*
X01488307Y01168465D02*
X01489488D01*
X01488307Y01204685D02*
X01489488D01*
X01398307Y00892559D02*
X01399488D01*
X01398307Y00856339D02*
X01399488D01*
X01443307Y00892559D02*
X01444488D01*
X01443307Y00856339D02*
X01444488D01*
X01488307Y00892559D02*
X01489488D01*
X01488307Y00856339D02*
X01489488D01*
X00203150Y00755079D02*
X00204331D01*
X00203150Y00791299D02*
X00204331D01*
X00248150Y00755079D02*
X00249331D01*
X00248150Y00791299D02*
X00249331D01*
X00203150Y00479173D02*
X00204331D01*
X00203150Y00442953D02*
X00204331D01*
X00248150Y00479173D02*
X00249331D01*
X00248150Y00442953D02*
X00249331D01*
X00571535Y00755079D02*
X00572717D01*
X00571535Y00791299D02*
X00572717D01*
X00616535Y00755079D02*
X00617717D01*
X00616535Y00791299D02*
X00617717D01*
X00661535Y00755079D02*
X00662717D01*
X00661535Y00791299D02*
X00662717D01*
X00571535Y00479173D02*
X00572717D01*
X00571535Y00442953D02*
X00572717D01*
X00616535Y00479173D02*
X00617717D01*
X00616535Y00442953D02*
X00617717D01*
X00661535Y00479173D02*
X00662717D01*
X00661535Y00442953D02*
X00662717D01*
X00984921Y00755079D02*
X00986102D01*
X00984921Y00791299D02*
X00986102D01*
X01029921Y00755079D02*
X01031102D01*
X01029921Y00791299D02*
X01031102D01*
X01074921Y00755079D02*
X01076102D01*
X01074921Y00791299D02*
X01076102D01*
X00984921Y00479173D02*
X00986102D01*
X00984921Y00442953D02*
X00986102D01*
X01029921Y00479173D02*
X01031102D01*
X01029921Y00442953D02*
X01031102D01*
X01074921Y00479173D02*
X01076102D01*
X01074921Y00442953D02*
X01076102D01*
X01398307Y00755079D02*
X01399488D01*
X01398307Y00791299D02*
X01399488D01*
X01443307Y00755079D02*
X01444488D01*
X01443307Y00791299D02*
X01444488D01*
X01488307Y00755079D02*
X01489488D01*
X01488307Y00791299D02*
X01489488D01*
X01398307Y00479173D02*
X01399488D01*
X01398307Y00442953D02*
X01399488D01*
X01443307Y00479173D02*
X01444488D01*
X01443307Y00442953D02*
X01444488D01*
X01488307Y00479173D02*
X01489488D01*
X01488307Y00442953D02*
X01489488D01*
X00203150Y00341693D02*
X00204331D01*
X00203150Y00377913D02*
X00204331D01*
X00248150Y00341693D02*
X00249331D01*
X00248150Y00377913D02*
X00249331D01*
X00158150Y00085472D02*
X00159331D01*
X00158150Y00049252D02*
X00159331D01*
X00203150Y00085472D02*
X00204331D01*
X00203150Y00049252D02*
X00204331D01*
X00248150Y00085472D02*
X00249331D01*
X00248150Y00049252D02*
X00249331D01*
X00571535Y00341693D02*
X00572717D01*
X00571535Y00377913D02*
X00572717D01*
X00616535Y00341693D02*
X00617717D01*
X00616535Y00377913D02*
X00617717D01*
X00661535Y00341693D02*
X00662717D01*
X00661535Y00377913D02*
X00662717D01*
X00571535Y00085472D02*
X00572717D01*
X00571535Y00049252D02*
X00572717D01*
X00616535Y00085472D02*
X00617717D01*
X00616535Y00049252D02*
X00617717D01*
X00661535Y00085472D02*
X00662717D01*
X00661535Y00049252D02*
X00662717D01*
X00984921Y00341693D02*
X00986102D01*
X00984921Y00377913D02*
X00986102D01*
X01029921Y00341693D02*
X01031102D01*
X01029921Y00377913D02*
X01031102D01*
X01074921Y00341693D02*
X01076102D01*
X01074921Y00377913D02*
X01076102D01*
X00984921Y00085472D02*
X00986102D01*
X00984921Y00049252D02*
X00986102D01*
X01029921Y00085472D02*
X01031102D01*
X01029921Y00049252D02*
X01031102D01*
X01074921Y00085472D02*
X01076102D01*
X01074921Y00049252D02*
X01076102D01*
X01443307Y00341693D02*
X01444488D01*
X01443307Y00377913D02*
X01444488D01*
X01488307Y00341693D02*
X01489488D01*
X01488307Y00377913D02*
X01489488D01*
X01398307Y00085472D02*
X01399488D01*
X01398307Y00049252D02*
X01399488D01*
X01443307Y00085472D02*
X01444488D01*
X01443307Y00049252D02*
X01444488D01*
X01488307Y00085472D02*
X01489488D01*
X01488307Y00049252D02*
X01489488D01*
X01398307Y00341693D02*
X01399488D01*
X01398307Y00377913D02*
X01399488D01*
X00158150Y00892559D02*
X00159331D01*
X00158150Y00856339D02*
X00159331D01*
X00158150Y00755079D02*
X00159331D01*
X00158150Y00791299D02*
X00159331D01*
X00158150Y00479173D02*
X00159331D01*
X00158150Y00442953D02*
X00159331D01*
X00158150Y00341693D02*
X00159331D01*
X00158150Y00377913D02*
X00159331D01*
G54D14*
X00457480Y-00236220D03*
Y01883859D03*
X01190157Y-00236220D03*
M02*
